<svg xmlns="http://www.w3.org/2000/svg" width="14.528" height="12" viewBox="0 0 14.528 12"><defs><style>.a{opacity:0.6;}</style></defs><path class="a" d="M7.94,17.07a1.658,1.658,0,0,0-.833.189,2.061,2.061,0,0,0-.979,1.551l-2.565,3.8a2.349,2.349,0,0,0-.28.536,2.742,2.742,0,0,0,.361,2.273.362.362,0,0,1-.1.466.306.306,0,0,1-.2.058.412.412,0,0,1-.315-.186,3.113,3.113,0,0,1-.513-1.5.115.115,0,0,0-.14-.1.615.615,0,0,0-.175.058.891.891,0,0,0-.408.909,2.334,2.334,0,0,1,.046.28,2.77,2.77,0,0,0,.3.851,2.741,2.741,0,0,0,.734.9,1.113,1.113,0,0,0,.653.245.8.8,0,0,0,.338-.082.685.685,0,0,0,.245-.222h1.1v.933a1.045,1.045,0,0,0,1.049,1.049h2.1A1.045,1.045,0,0,0,9.4,28.02v-.933h1.143a2.543,2.543,0,0,0,1.049.245,1.61,1.61,0,0,0,.781-.187,2.571,2.571,0,0,0,1.038-2.565l1.026.2c.023,0,.047.012.07.012a.354.354,0,0,0,.35-.327.364.364,0,0,0-.291-.373l-2.378-.466a.35.35,0,0,0-.42.35.362.362,0,0,0,.291.35l.618.117c.093,1.049-.152,1.83-.653,2.087-.921.49-2.833-.723-4.209-3.311s-1.306-4.85-.385-5.34c.8-.431,2.262.443,3.451,2.075a.355.355,0,0,0,.431.128.348.348,0,0,0,.14-.525C10.325,18,9.011,17.1,7.94,17.07Zm3.767.043a.376.376,0,0,0-.3.147l-.3.42a.354.354,0,0,0,.082.49.327.327,0,0,0,.478-.082l.315-.42a.354.354,0,0,0-.082-.49A.317.317,0,0,0,11.707,17.112Zm2.061,2.6a.365.365,0,0,0-.2.043l-1.749.933c.012.012,0,.012,0,.012s-.012,0-.023.012a.347.347,0,0,0-.14.478,10.16,10.16,0,0,1,.676,1.574.346.346,0,0,0,.327.245.173.173,0,0,0,.1-.023.348.348,0,0,0,.222-.443,9.826,9.826,0,0,0-.571-1.376l1.492-.793a.348.348,0,0,0,.14-.478A.342.342,0,0,0,13.768,19.711Zm-4.23.852a1.727,1.727,0,0,0-.835.2c-.012.012-.023.012-.035.023l-.07.035c-.525.28-.56,1.131-.082,2.028A1.863,1.863,0,0,0,9.9,24a.69.69,0,0,0,.338-.082.255.255,0,0,0,.058-.035c.012,0,.023-.012.046-.012a1.757,1.757,0,0,0,.851-1.038A1.7,1.7,0,0,0,11.07,21.5,1.752,1.752,0,0,0,9.538,20.564Zm6.429,3.793a.346.346,0,0,0-.245.1.336.336,0,0,0-.105.245.148.148,0,0,0,.012.07.051.051,0,0,0,0,.07.255.255,0,0,0,.035.058.2.2,0,0,0,.046.058.336.336,0,0,0,.245.1.317.317,0,0,0,.245-.1.255.255,0,0,0,.047-.058c.012-.023.023-.035.035-.058s.012-.047.023-.07.012-.047.012-.07a.317.317,0,0,0-.1-.245A.346.346,0,0,0,15.966,24.356ZM5.894,27.087h2.8v.933a.344.344,0,0,1-.35.35h-2.1a.344.344,0,0,1-.35-.35Z" transform="translate(-1.789 -17.069)"/></svg>