<svg xmlns="http://www.w3.org/2000/svg" width="29.943" height="26.771" viewBox="0 0 29.943 26.771"><defs><style>.a{fill:#fff;opacity:0.8;}.b{fill:#186785;}</style></defs><path class="a" d="M19740.111,16923.053h-.092a4.642,4.642,0,0,1-2.738-.748,4.481,4.481,0,0,1-1.389-1.795,2,2,0,0,0-.926-1.07,13.5,13.5,0,0,0-1.994-.75,2.033,2.033,0,0,1-1.012-.783,2.518,2.518,0,0,1-.344-.98c-.066-.355-.1-.689-.123-.986l0-.023c-.021-.246-.043-.479-.08-.7a1.787,1.787,0,0,0-.521-1.131,3.343,3.343,0,0,0-2.021-.605.926.926,0,0,1-.869-.926,6.265,6.265,0,0,1,4.309-6.014c.221-.074.438-.4.664-.982.1-.252.2-.539.316-.889.172-.5.367-1.07.611-1.654a5.943,5.943,0,0,1,6.127-4.021,6.323,6.323,0,0,1,4.105,1.3,6.966,6.966,0,0,1,1.992,2.83c.244.578.441,1.139.613,1.635l.021.057c.113.324.221.629.322.883a2.864,2.864,0,0,0,.348.693c.082.107.115.113.135.117h.008a5.284,5.284,0,0,1,3.932,3.035,6.788,6.788,0,0,1,.447,1.744,8,8,0,0,0-3.574-2.557,5.847,5.847,0,0,0-1.211-.4,2.242,2.242,0,0,1-1.215-.8,4.49,4.49,0,0,1-.6-1.131c-.139-.344-.26-.7-.387-1.072l-.018-.057,0-.006c-.16-.467-.326-.951-.521-1.408a5.167,5.167,0,0,0-1.443-2.111,4.442,4.442,0,0,0-2.949-.9,4.216,4.216,0,0,0-4.422,2.865c-.189.447-.354.955-.486,1.361-.113.352-.254.789-.41,1.182a3.2,3.2,0,0,1-1.795,2.023,4.16,4.16,0,0,0-2.975,3.529,4.369,4.369,0,0,1,2.2.922,3.618,3.618,0,0,1,1.1,2.172c.068.4.1.773.135,1.1.02.238.041.447.068.6a1.5,1.5,0,0,0,.088.314l.006,0a.059.059,0,0,1,.025.006l.357.117c.057.018.111.035.164.055a9.12,9.12,0,0,1,1.818.725,4.171,4.171,0,0,1,1.676,1.9,2.542,2.542,0,0,0,.783,1.07,2.191,2.191,0,0,0,1.008.367,8.072,8.072,0,0,0,1.869,1.756A5.057,5.057,0,0,1,19740.111,16923.053Zm1.3-14.8c-.766,0-1.389-.83-1.389-1.85s.623-1.85,1.389-1.85,1.389.83,1.389,1.85S19742.182,16908.25,19741.416,16908.25Zm-3.7,0c-.766,0-1.389-.83-1.389-1.85s.623-1.85,1.389-1.85,1.389.83,1.389,1.85S19738.479,16908.25,19737.713,16908.25Z" transform="translate(-19724.129 -16896.281)"/><g transform="translate(1 1)"><circle class="b" cx="1.5" cy="1.5" r="1.5" transform="translate(-1 8.319)"/><circle class="b" cx="0.75" cy="0.75" r="0.75" transform="translate(5.733 -1)"/><circle class="b" cx="1" cy="1" r="1" transform="translate(26.943 4.013)"/></g><path class="a" d="M6.593,6.023l-1.06,1.06.459.471a7.338,7.338,0,0,0-1.884,2.7l-.088.253.088.253c.059.171,1.56,4.228,5.912,4.228a5.842,5.842,0,0,0,2.756-.665L13.44,15l1.072-1.072-.465-.459-1.072-1.077-1.519-1.519-.442-.436-.924-.924-.436-.442L8.406,7.831,7.252,6.671Zm3.427,0a6.124,6.124,0,0,0-1.172.118l1.419,1.413A4.929,4.929,0,0,1,14.4,10.51a5.46,5.46,0,0,1-.424.76l1.083,1.078a6.927,6.927,0,0,0,.871-1.584l.088-.253-.088-.253C15.872,10.086,14.371,6.023,10.02,6.023ZM7.087,8.638l1.49,1.5a1.33,1.33,0,0,0-.065.377,1.51,1.51,0,0,0,1.507,1.507,1.33,1.33,0,0,0,.377-.065L11.633,13.2a4.51,4.51,0,0,1-1.613.289A4.873,4.873,0,0,1,5.639,10.51,5.747,5.747,0,0,1,7.087,8.638Z" transform="translate(11.566 9)"/></svg>