<svg xmlns="http://www.w3.org/2000/svg" width="25.742" height="20.499" viewBox="0 0 25.742 20.499"><defs><style>.a{fill:#535261;stroke:#535261;}.b,.c{fill:#7a7580;stroke:#7a7580;}.b{stroke-width:0.5px;}</style></defs><g transform="translate(0.263 0.25)"><path class="a" d="M29.739,28a1.739,1.739,0,1,0,1.739,1.739A1.739,1.739,0,0,0,29.739,28Z" transform="translate(-17.13 -19.739)"/><path class="b" d="M35.015,19.03a.92.92,0,0,0-.8-.465H32.534A10.011,10.011,0,0,0,22.545,9a9.908,9.908,0,0,0-7.273,3.137l.633.6a9.122,9.122,0,0,1,15.749,5.832H30a.921.921,0,0,0-.8.465,1,1,0,0,0-.01,1l1.681,3.013a1.406,1.406,0,0,0,1.235.744h0a1.408,1.408,0,0,0,1.235-.744l1.681-3.013A1.006,1.006,0,0,0,35.015,19.03Zm-.748.573-1.681,3.013a.543.543,0,0,1-.476.3h0a.542.542,0,0,1-.476-.3L29.953,19.6a.132.132,0,0,1,0-.132c.014-.023.03-.035.047-.035h4.216a.057.057,0,0,1,.047.036A.131.131,0,0,1,34.267,19.6Z" transform="translate(-9.937 -9)"/><path class="b" d="M15.609,34.913a9.134,9.134,0,0,1-9.108-8.7H8.152a.921.921,0,0,0,.8-.465,1,1,0,0,0,.01-1L7.279,21.744A1.408,1.408,0,0,0,6.044,21h0a1.406,1.406,0,0,0-1.235.744L3.128,24.756a1.007,1.007,0,0,0,.01,1,.921.921,0,0,0,.8.465H5.62a10.011,10.011,0,0,0,9.989,9.565,9.908,9.908,0,0,0,7.273-3.137l-.633-.6A9.045,9.045,0,0,1,15.609,34.913Zm-11.721-9.6a.133.133,0,0,1,0-.132l1.681-3.013a.529.529,0,0,1,.952,0L8.2,25.18a.131.131,0,0,1,0,.132.058.058,0,0,1-.048.035H3.936C3.918,25.348,3.9,25.336,3.889,25.312Z" transform="translate(-3.001 -15.783)"/><path class="c" d="M-2214.119-8691.74l4.545.185-2.006,3.927-.951-.385Z" transform="translate(2234 8702)"/><path class="c" d="M-2230.972-8696.108h0l.7.234,1.954,3.465-.4.5-4.546-.119-.287-.547,2.034-3.528" transform="translate(2234 8702)"/></g></svg>