<svg xmlns="http://www.w3.org/2000/svg" width="20" height="20" viewBox="0 0 20 20"><defs><style>.a{fill:#7a7580;}</style></defs><path class="a" d="M10,0A5.5,5.5,0,0,0,6.538,1.034,5.532,5.532,0,0,0,4.9,3.341c-.337.8-.553,1.566-.769,2.115s-.4.763-.553.817a5.189,5.189,0,0,0-3.582,5,.77.77,0,0,0,.721.769,2.632,2.632,0,0,1,1.683.5,1.509,1.509,0,0,1,.433.938c.069.412.075.892.168,1.418a2.16,2.16,0,0,0,.288.817,1.674,1.674,0,0,0,.841.649A10.876,10.876,0,0,1,5.793,17a1.645,1.645,0,0,1,.769.889,3.65,3.65,0,0,0,1.154,1.49A3.909,3.909,0,0,0,10.072,20a3.642,3.642,0,0,0,3.077-1.587c.249-.367.424-.682.577-.889a.738.738,0,0,1,.409-.337,3.477,3.477,0,0,0,2.091-1.514,5.675,5.675,0,0,0,.577-1.659c.108-.427.174-.613.409-.769a3.477,3.477,0,0,1,1.971-.264A.771.771,0,0,0,20,12.212a8.857,8.857,0,0,0-.457-3.437A4.358,4.358,0,0,0,16.274,6.25c-.018,0-.039.006-.12-.1a2.627,2.627,0,0,1-.288-.577c-.216-.538-.448-1.325-.793-2.139a5.91,5.91,0,0,0-1.659-2.356A5.279,5.279,0,0,0,10,0Zm0,1.538a3.643,3.643,0,0,1,2.452.745,4.392,4.392,0,0,1,1.2,1.755c.294.694.5,1.445.769,2.115a3.632,3.632,0,0,0,.5.937,1.861,1.861,0,0,0,1.01.673,2.6,2.6,0,0,1,2.187,1.611,6.59,6.59,0,0,1,.24,2.115,3.98,3.98,0,0,0-2,.481,2.686,2.686,0,0,0-1.058,1.659A5.249,5.249,0,0,1,14.9,14.9a1.809,1.809,0,0,1-1.226.817,2.4,2.4,0,0,0-1.2.889c-.261.349-.418.691-.6.962-.367.541-.634.874-1.827.889a2.313,2.313,0,0,1-1.442-.337,2.115,2.115,0,0,1-.649-.889,3.489,3.489,0,0,0-1.394-1.587A10.526,10.526,0,0,0,4.615,14.9c-.042-.015-.012.021-.024,0a1.079,1.079,0,0,1-.072-.264c-.054-.3-.072-.835-.168-1.418a3.034,3.034,0,0,0-.913-1.8,3.672,3.672,0,0,0-1.827-.769A3.456,3.456,0,0,1,4.087,7.716a2.637,2.637,0,0,0,1.49-1.683c.27-.682.463-1.442.745-2.115A3.939,3.939,0,0,1,7.5,2.26,3.828,3.828,0,0,1,10,1.538ZM8.077,4.615c-.637,0-1.154.688-1.154,1.538S7.44,7.692,8.077,7.692,9.231,7,9.231,6.154,8.714,4.615,8.077,4.615Zm3.077,0C10.517,4.615,10,5.3,10,6.154s.517,1.538,1.154,1.538S12.308,7,12.308,6.154,11.791,4.615,11.154,4.615Z"/></svg>