<svg xmlns="http://www.w3.org/2000/svg" width="21" height="18.002" viewBox="0 0 21 18.002"><defs><style>.a{fill:#535261;}.b{fill:#7a7580;}</style></defs><path class="a" d="M19699,16917a1,1,0,0,1-1-1v-1.1a4.946,4.946,0,0,0,1,.1,4.771,4.771,0,0,0,1-.1v1.1A1,1,0,0,1,19699,16917Zm1-11.895h0a4.964,4.964,0,0,0-2,0l0-5.105a1,1,0,0,1,2,0v5.105Z" transform="translate(-19695.002 -16898.998)"/><path class="b" d="M19699,16911a1,1,0,0,1-1-1v-1.105a4.946,4.946,0,0,0,1,.1,5.347,5.347,0,0,0,1-.1v1.1A1,1,0,0,1,19699,16911Z" transform="translate(-19695.002 -16892.998)"/><path class="b" d="M19699,16916a1,1,0,0,1-1-1v-6.105a4.946,4.946,0,0,0,1,.1,5.347,5.347,0,0,0,1-.1v6.1A1,1,0,0,1,19699,16916Z" transform="translate(-19682.002 -16899.998)"/><path class="b" d="M19698,16907a4,4,0,1,1,4-4A4.005,4.005,0,0,1,19698,16907Zm0-6.5a2.5,2.5,0,1,0,2.5,2.5A2.5,2.5,0,0,0,19698,16900.5Z" transform="translate(-19694.002 -16891.998)"/><path class="b" d="M19698,16907a4,4,0,1,1,4-4A4.005,4.005,0,0,1,19698,16907Zm0-6.5a2.5,2.5,0,1,0,2.5,2.5A2.5,2.5,0,0,0,19698,16900.5Z" transform="translate(-19681.002 -16898.998)"/></svg>