<svg xmlns="http://www.w3.org/2000/svg" width="16" height="16" viewBox="0 0 16 16"><defs><style>.a{opacity:0.6;}</style></defs><path class="a" d="M17.222,3H4.778A1.777,1.777,0,0,0,3,4.778V17.222A1.777,1.777,0,0,0,4.778,19h8.889L19,13.667V4.778A1.777,1.777,0,0,0,17.222,3ZM7.444,6.556h7.111a.889.889,0,0,1,.889.889h0a.889.889,0,0,1-.889.889H7.444a.889.889,0,0,1-.889-.889h0A.889.889,0,0,1,7.444,6.556Zm2.667,5.333H7.444A.889.889,0,0,1,6.556,11h0a.889.889,0,0,1,.889-.889h2.667A.889.889,0,0,1,11,11h0A.889.889,0,0,1,10.111,11.889Zm2.667,5.778V12.778h4.889Z" transform="translate(-3 -3)"/></svg>