<svg xmlns="http://www.w3.org/2000/svg" width="70.35" height="70.35" viewBox="0 0 70.35 70.35">
  <g id="Group_5860" data-name="Group 5860" transform="translate(-33.134 -31.465)">
    <path id="Path_854" data-name="Path 854" d="M80.175,95.467H40.518A14.385,14.385,0,0,1,26.175,81.124V41.468A14.385,14.385,0,0,1,40.518,27.125H80.174A14.385,14.385,0,0,1,94.517,41.468V81.124A14.383,14.383,0,0,1,80.175,95.467Z" transform="translate(7.963 5.344)" fill="#ffa054"/>
    <path id="Path_855" data-name="Path 855" d="M80.479,96.775H40.822A15.364,15.364,0,0,1,25.475,81.428V41.772A15.364,15.364,0,0,1,40.822,26.425H80.478A15.364,15.364,0,0,1,95.825,41.772V81.428A15.362,15.362,0,0,1,80.479,96.775ZM40.822,28.433A13.354,13.354,0,0,0,27.483,41.772V81.428A13.354,13.354,0,0,0,40.822,94.767H80.478A13.354,13.354,0,0,0,93.817,81.428V41.772A13.354,13.354,0,0,0,80.478,28.433Z" transform="translate(7.659 5.04)" fill="#472b29"/>
    <path id="Path_856" data-name="Path 856" d="M77.107,89.807H40.955A11.764,11.764,0,0,1,29.2,78.056V41.9A11.764,11.764,0,0,1,40.955,30.153H77.472a.538.538,0,1,1,0,1.076H40.955A10.688,10.688,0,0,0,30.28,41.9V78.056A10.688,10.688,0,0,0,40.955,88.732H77.106A10.688,10.688,0,0,0,87.781,78.056V57.811a.538.538,0,1,1,1.076,0V78.056A11.761,11.761,0,0,1,77.107,89.807ZM88.32,55.095a.538.538,0,0,1-.538-.538V50.218a.538.538,0,0,1,1.076,0v4.339A.538.538,0,0,1,88.32,55.095Zm0-6.509a.538.538,0,0,1-.538-.538v-2.17a.538.538,0,1,1,1.076,0v2.17A.538.538,0,0,1,88.32,48.586Z" transform="translate(9.279 6.659)" fill="#472b29"/>
    <path id="Path_857" data-name="Path 857" d="M55.049,71.363a3.735,3.735,0,0,1-1.127,2.747,3.686,3.686,0,0,1-2.7,1.13,3.814,3.814,0,0,1-2.771-1.13,3.817,3.817,0,0,1,0-5.47,3.775,3.775,0,0,1,2.771-1.152,3.647,3.647,0,0,1,2.7,1.152A3.761,3.761,0,0,1,55.049,71.363ZM49.7,64q-.245-5.348-.612-8.98t-.734-6.107c-.245-1.654-.459-3-.638-4.049a16.991,16.991,0,0,1-.27-2.846q0-2.356,1.054-3.214a4.338,4.338,0,0,1,2.821-.859,3.986,3.986,0,0,1,2.724.882,3.962,3.962,0,0,1,1.007,3.092,19.51,19.51,0,0,1-.245,2.893q-.245,1.62-.612,4.1t-.785,6.107q-.42,3.632-.76,8.98H49.7Z" transform="translate(17.136 10.045)" fill="#fdfcee"/>
    <path id="Path_858" data-name="Path 858" d="M51.375,75.893a4.312,4.312,0,0,1-3.122-1.275,4.319,4.319,0,0,1,0-6.183,4.275,4.275,0,0,1,3.127-1.3,4.153,4.153,0,0,1,3.058,1.3,4.38,4.38,0,0,1,0,6.177A4.183,4.183,0,0,1,51.375,75.893Zm0-7.752a3.266,3.266,0,0,0-2.417,1,3.318,3.318,0,0,0,0,4.757,3.3,3.3,0,0,0,2.421.987,3.167,3.167,0,0,0,2.344-.984,3.376,3.376,0,0,0,0-4.763A3.129,3.129,0,0,0,51.375,68.141ZM52.8,64.657H49.853a.5.5,0,0,1-.5-.479c-.164-3.551-.369-6.563-.611-8.953s-.488-4.43-.731-6.084-.458-2.992-.637-4.037a17.567,17.567,0,0,1-.277-2.929c0-1.744.406-2.923,1.239-3.6a4.837,4.837,0,0,1,3.138-.971,4.479,4.479,0,0,1,3.054,1.007,4.44,4.44,0,0,1,1.178,3.47,20.126,20.126,0,0,1-.251,2.969l-.612,4.1c-.242,1.628-.506,3.676-.782,6.091-.277,2.4-.534,5.412-.759,8.956A.5.5,0,0,1,52.8,64.657Zm-2.464-1h2c.219-3.358.466-6.228.733-8.535.278-2.424.542-4.485.786-6.124l.612-4.1a19.057,19.057,0,0,0,.24-2.817,3.533,3.533,0,0,0-.836-2.715,3.474,3.474,0,0,0-2.391-.757,3.867,3.867,0,0,0-2.5.746,3.575,3.575,0,0,0-.869,2.826,16.617,16.617,0,0,0,.262,2.76q.271,1.577.641,4.06c.247,1.669.495,3.732.737,6.13C49.973,57.424,50.173,60.291,50.333,63.653Z" transform="translate(16.984 9.894)" fill="#472b29"/>
  </g>
</svg>
