<svg xmlns="http://www.w3.org/2000/svg" width="20.501" height="18.889" viewBox="0 0 20.501 18.889"><defs><style>.a{fill:#7a7580;}.b{fill:none;stroke:#535261;stroke-linecap:round;}</style></defs><g transform="translate(0.5)"><path class="a" d="M19.007,3a2.577,2.577,0,1,0,2.5,2.576A2.553,2.553,0,0,0,19.007,3ZM8.168,4.717V6.434h3.814l.772.828L9.066,10.5a2.643,2.643,0,0,0-.332,3.569v0l1.938,2.67H6.5v1.717H9L6.5,21.889H8.584l2.5-3.434h1.251a.832.832,0,0,0,.744-.474.88.88,0,0,0-.077-.9l-2.951-4.068-.016-.02a.865.865,0,0,1,.111-1.191L13.91,8.5l2.6,2.784v2.874a.847.847,0,0,0,.834.859h4.169V13.3H18.173V10.942a.872.872,0,0,0-.231-.594l-5-5.366a.822.822,0,0,0-.6-.265Z" transform="translate(-1.507 -3)"/><path class="b" d="M2051.364,4662.869h-3.357" transform="translate(-2046.808 -4655.535)"/><path class="b" d="M2051.863,4662.869h-3.856" transform="translate(-2048.007 -4653.369)"/></g></svg>