<svg xmlns="http://www.w3.org/2000/svg" width="21.943" height="18" viewBox="0 0 21.943 18"><defs><style>.a{fill:#7a7580;}.b{fill:#535261;}</style></defs><path class="a" d="M8.337,1A2.685,2.685,0,0,0,5.653,3.274a1.929,1.929,0,0,0-.036.339c0,1.5,1.142,2.742,2.19,3.67A15.471,15.471,0,0,0,9.889,8.826L10.183,9l.294-.174A15.469,15.469,0,0,0,12.56,7.283c1.048-.928,2.19-2.172,2.19-3.67a1.931,1.931,0,0,0-.036-.339A2.678,2.678,0,0,0,12.03,1a2.879,2.879,0,0,0-1.846.727A2.879,2.879,0,0,0,8.337,1Zm0,1.142a1.72,1.72,0,0,1,1.445.687l.4.406.4-.406a1.72,1.72,0,0,1,1.445-.687,1.532,1.532,0,0,1,1.556,1.293l0,.027,0,.018a.59.59,0,0,1,.013.134A4.75,4.75,0,0,1,11.8,6.431a10.714,10.714,0,0,1-1.619,1.2,10.714,10.714,0,0,1-1.619-1.2A4.75,4.75,0,0,1,6.759,3.613a.44.44,0,0,1,.013-.125l.009-.054A1.528,1.528,0,0,1,8.337,2.142Z" transform="translate(2.175 -1)"/><path class="b" d="M7.156,11.77A8.362,8.362,0,0,0,5.4,12a.344.344,0,0,0-.084.024l-3.8,1.328c-.4.138-.865,2.525-.481,3.679a4.221,4.221,0,0,0,1.539,1.9,1.426,1.426,0,0,0,1.022.475L7.12,18l4.892,2.41-.09-.048a3.86,3.86,0,0,0,3.78.27.571.571,0,0,0,.1-.06l6.4-4.315.631-.427-.853-1.28-.643.433-6.311,4.261a2.319,2.319,0,0,1-2.254-.162.429.429,0,0,0-.09-.048L7.492,16.464a.779.779,0,0,0-.625-.024L3.778,17.678a2.463,2.463,0,0,1-1.2-1.214,3.509,3.509,0,0,1,.168-1.911l3.029-1.064a8.668,8.668,0,0,1,1.382-.18,2.389,2.389,0,0,1,1.833.6A13.8,13.8,0,0,0,11.8,15.96a9.512,9.512,0,0,0,3.817.427h.769V14.848h-.769a8.559,8.559,0,0,1-3.2-.3,16.6,16.6,0,0,1-2.476-1.839A4.261,4.261,0,0,0,7.156,11.77Z" transform="translate(-0.893 -3)"/><path class="a" d="M901.4,2177.973l1.049-.288.9.117.66.595.439.254.744-.678.95-.288.777.117.881.595.475.982v.912l-.594.814-.762,1.115-1.252.95-.693.643-.678.373-.947-.627-.9-.831-.828-.878-.645-.983-.439-.711v-1.506Z" transform="translate(-892 -2177)"/></svg>