<svg xmlns="http://www.w3.org/2000/svg" width="15.999" height="16" viewBox="0 0 15.999 16"><defs><style>.a{fill:#fff;}</style></defs><path class="a" d="M18.959,10.98a1.263,1.263,0,0,0-.872.375L16.418,13.04a1.264,1.264,0,1,0,1.8,1.778l.78-.786.8.794a1.263,1.263,0,1,0,1.776-1.794l-1.7-1.684A1.263,1.263,0,0,0,18.959,10.98Zm5.087,5.039a1.263,1.263,0,0,0-.891,2.166l.8.8-.786.78a1.263,1.263,0,1,0,1.776,1.794l1.684-1.668a1.263,1.263,0,0,0,.01-1.786l-1.684-1.7a1.263,1.263,0,0,0-.9-.388Zm-10.129,0a1.263,1.263,0,0,0-.867.387l-1.684,1.7a1.263,1.263,0,0,0,.01,1.786l1.684,1.668a1.263,1.263,0,1,0,1.776-1.794l-.786-.78.8-.8a1.263,1.263,0,0,0-.929-2.164Zm6.8,6.717a1.263,1.263,0,0,0-.918.4l-.8.794-.78-.786a1.264,1.264,0,1,0-1.8,1.778l1.669,1.684a1.263,1.263,0,0,0,1.786.008l1.7-1.684a1.263,1.263,0,0,0-.858-2.192Z" transform="translate(-11 -10.98)"/></svg>