<svg width="6" height="10" viewBox="0 0 6 10" fill="none" xmlns="http://www.w3.org/2000/svg">
<path d="M5.49986 5.00032C5.50639 4.86411 5.46181 4.73037 5.37486 4.62532C4.21999 3.1309 2.87534 1.79331 1.37486 0.646321C1.29723 0.583091 1.2059 0.538864 1.10816 0.517162C1.01042 0.495461 0.908955 0.496885 0.811859 0.521321C0.718038 0.566911 0.638933 0.637974 0.583584 0.72639C0.528236 0.814807 0.498876 0.91701 0.498859 1.02132L0.498859 8.97832C0.498785 9.08253 0.527995 9.18466 0.58316 9.27306C0.638326 9.36147 0.717224 9.43259 0.810859 9.47832C0.907772 9.50307 1.00915 9.50465 1.10679 9.48294C1.20442 9.46122 1.29558 9.41682 1.37286 9.35332C2.87335 8.20634 4.218 6.86875 5.37286 5.37432C5.46064 5.27002 5.50598 5.13651 5.49986 5.00032Z" fill="white"/>
</svg>
