<svg width="32" height="32" viewBox="0 0 32 32" fill="none" xmlns="http://www.w3.org/2000/svg">
<g clip-path="url(#clip0_2324_5511)">
<path d="M4.30927 0.000142903C3.99701 -0.000310597 3.68977 0.078606 3.41638 0.229482C3.143 0.380358 2.91244 0.598243 2.74637 0.862674C2.58031 1.12711 2.48417 1.42941 2.46699 1.74119C2.44982 2.05297 2.51217 2.364 2.64819 2.64508C2.32328 2.48885 1.95972 2.43124 1.60244 2.47935C1.24515 2.52746 0.909782 2.67919 0.637771 2.91579C0.365761 3.15239 0.169024 3.46349 0.0718682 3.81067C-0.0252877 4.15784 -0.0186059 4.52588 0.0910876 4.8693C0.200781 5.21272 0.40868 5.51647 0.689099 5.74305C0.969518 5.96962 1.31017 6.10907 1.66897 6.14418C2.02777 6.17929 2.38899 6.10852 2.70802 5.94061C3.02704 5.77269 3.28988 5.515 3.46406 5.19936L4.19462 5.92991C4.68737 5.2715 5.23406 4.65525 5.82904 4.08752L5.20247 3.46629C5.56607 3.27143 5.85376 2.96017 6.01946 2.58238C6.18515 2.20459 6.21925 1.78212 6.11631 1.38264C6.01337 0.983159 5.77933 0.629787 5.45169 0.379123C5.12405 0.128458 4.72177 -0.00499334 4.30927 0.000142903ZM27.6897 0.000142903C27.2787 -0.0019733 26.8787 0.133229 26.5533 0.3843C26.2278 0.635371 25.9955 0.98793 25.8932 1.38605C25.7909 1.78416 25.8245 2.20504 25.9886 2.58189C26.1528 2.95875 26.438 3.27001 26.7992 3.46629L26.1753 4.09552C26.77 4.66444 27.3167 5.28157 27.8097 5.94058L28.5429 5.20469C28.7185 5.51993 28.9826 5.77678 29.3026 5.94347C29.6226 6.11016 29.9844 6.17937 30.3433 6.14252C30.7023 6.10568 31.0425 5.96441 31.322 5.73619C31.6014 5.50797 31.8079 5.20282 31.9157 4.85849C32.0235 4.51417 32.028 4.14579 31.9286 3.79893C31.8293 3.45207 31.6304 3.14197 31.3566 2.90699C31.0828 2.672 30.7461 2.52246 30.3881 2.47685C30.0302 2.43125 29.6668 2.49159 29.3428 2.65041C29.4797 2.36994 29.543 2.0593 29.5269 1.74764C29.5109 1.43598 29.4159 1.13351 29.2509 0.868606C29.086 0.603699 28.8564 0.385037 28.5838 0.233132C28.3112 0.0812264 28.0045 0.00105678 27.6924 0.000142903H27.6897ZM16.0008 2.4611C13.9174 2.45699 11.8671 2.98289 10.0429 3.98932C8.21868 4.99575 6.68042 6.44965 5.5728 8.21427C4.46517 9.9789 3.82459 11.9963 3.7113 14.0766C3.59801 16.157 4.01573 18.232 4.92518 20.1064V20.9223C4.92518 22.2277 5.44373 23.4796 6.36677 24.4026C7.28981 25.3257 8.54172 25.8442 9.8471 25.8442H10.6683C10.807 25.9109 10.9349 25.9829 11.0842 26.0442V27.076C11.0842 27.7287 11.3435 28.3547 11.805 28.8162C12.2666 29.2777 12.8925 29.537 13.5452 29.537H18.4618C19.1145 29.537 19.7404 29.2777 20.202 28.8162C20.6635 28.3547 20.9228 27.7287 20.9228 27.076V26.0442C21.0641 25.9829 21.1894 25.9109 21.3387 25.8442H22.1546C23.4599 25.8442 24.7119 25.3257 25.6349 24.4026C26.5579 23.4796 27.0765 22.2277 27.0765 20.9223V20.1064C27.9859 18.232 28.4037 16.157 28.2904 14.0766C28.1771 11.9963 27.5365 9.9789 26.4289 8.21427C25.3212 6.44965 23.783 4.99575 21.9587 3.98932C20.1345 2.98289 18.0843 2.45699 16.0008 2.4611ZM10.463 15.9977C11.0716 15.9977 11.6664 16.1782 12.1724 16.5163C12.6784 16.8544 13.0728 17.3349 13.3057 17.8971C13.5385 18.4593 13.5995 19.078 13.4808 19.6749C13.362 20.2717 13.069 20.82 12.6387 21.2503C12.2084 21.6806 11.6601 21.9736 11.0633 22.0923C10.4664 22.2111 9.84776 22.1501 9.28554 21.9172C8.72331 21.6844 8.24277 21.29 7.90468 20.784C7.56659 20.278 7.38614 19.6831 7.38614 19.0746C7.38614 18.2586 7.71031 17.4759 8.28733 16.8989C8.86436 16.3219 9.64697 15.9977 10.463 15.9977ZM21.5387 15.9977C22.1472 15.9977 22.7421 16.1782 23.2481 16.5163C23.7541 16.8544 24.1484 17.3349 24.3813 17.8971C24.6142 18.4593 24.6751 19.078 24.5564 19.6749C24.4377 20.2717 24.1446 20.82 23.7143 21.2503C23.284 21.6806 22.7358 21.9736 22.1389 22.0923C21.5421 22.2111 20.9234 22.1501 20.3612 21.9172C19.799 21.6844 19.3184 21.29 18.9803 20.784C18.6422 20.278 18.4618 19.6831 18.4618 19.0746C18.4618 18.2586 18.786 17.4759 19.363 16.8989C19.94 16.3219 20.7226 15.9977 21.5387 15.9977ZM16.0008 23.3806C16.2445 23.3806 16.4826 23.4529 16.6852 23.5882C16.8878 23.7236 17.0456 23.9159 17.1389 24.141C17.2321 24.3661 17.2565 24.6138 17.209 24.8527C17.1614 25.0917 17.0441 25.3112 16.8719 25.4834C16.6996 25.6557 16.4801 25.773 16.2411 25.8206C16.0022 25.8681 15.7545 25.8437 15.5294 25.7505C15.3044 25.6572 15.112 25.4993 14.9766 25.2968C14.8413 25.0942 14.769 24.856 14.769 24.6124C14.769 24.2857 14.8988 23.9724 15.1298 23.7414C15.3608 23.5104 15.6741 23.3806 16.0008 23.3806ZM1.84831 25.8416C1.57087 25.8411 1.29689 25.9032 1.04676 26.0232C0.796628 26.1432 0.57679 26.3181 0.403606 26.5349C0.230421 26.7517 0.108348 27.0047 0.0464719 27.2751C-0.0154046 27.5456 -0.0154917 27.8265 0.0462176 28.097C0.107927 28.3675 0.229844 28.6206 0.402894 28.8374C0.575945 29.0543 0.795673 29.2293 1.04573 29.3495C1.29578 29.4697 1.56972 29.532 1.84717 29.5317C2.12461 29.5314 2.39841 29.4685 2.64819 29.3477C2.49196 29.6726 2.43435 30.0362 2.48246 30.3935C2.53057 30.7507 2.6823 31.0861 2.9189 31.3581C3.1555 31.6301 3.4666 31.8269 3.81378 31.924C4.16095 32.0212 4.52899 32.0145 4.87241 31.9048C5.21583 31.7951 5.51958 31.5872 5.74616 31.3068C5.97273 31.0264 6.11218 30.6857 6.14729 30.3269C6.1824 29.9681 6.11163 29.6069 5.94372 29.2879C5.7758 28.9689 5.51811 28.706 5.20247 28.5318L6.33296 27.4013C5.6035 27.0021 4.94642 26.4829 4.38926 25.8656L3.4694 26.7961C3.30964 26.5062 3.07486 26.2646 2.78964 26.0967C2.50443 25.9288 2.17929 25.8406 1.84831 25.8416ZM30.1507 25.8416C29.8206 25.8416 29.4966 25.9302 29.2124 26.0981C28.9282 26.2659 28.6943 26.507 28.5349 26.7961L27.6097 25.8709C27.0519 26.4875 26.3949 27.0066 25.666 27.4067L26.7965 28.5372C26.4804 28.7126 26.2226 28.9769 26.0552 29.2974C25.8878 29.6179 25.8181 29.9804 25.8547 30.3401C25.8914 30.6998 26.0328 31.0409 26.2614 31.321C26.49 31.6012 26.7957 31.8081 27.1408 31.9161C27.4858 32.0242 27.855 32.0286 28.2025 31.9289C28.5501 31.8292 28.8607 31.6297 29.096 31.3551C29.3313 31.0806 29.4808 30.743 29.5261 30.3843C29.5714 30.0256 29.5105 29.6615 29.3508 29.337C29.6006 29.4578 29.8744 29.5207 30.1518 29.521C30.4293 29.5213 30.7032 29.4591 30.9533 29.3389C31.2033 29.2187 31.4231 29.0436 31.5961 28.8268C31.7692 28.6099 31.8911 28.3568 31.9528 28.0863C32.0145 27.8158 32.0144 27.5349 31.9525 27.2645C31.8907 26.994 31.7686 26.741 31.5954 26.5242C31.4222 26.3075 31.2024 26.1326 30.9522 26.0125C30.7021 25.8925 30.4281 25.8304 30.1507 25.8309V25.8416Z" fill="#FA2A67"/>
</g>
<defs>
<clipPath id="clip0_2324_5511">
<rect width="32" height="32" fill="white"/>
</clipPath>
</defs>
</svg>
