<svg width="5" height="12" viewBox="0 0 5 12" fill="none" xmlns="http://www.w3.org/2000/svg">
<path d="M5.00084 7.00034C5.00737 6.86413 4.96279 6.73039 4.87584 6.62534C3.72097 5.13091 2.37632 3.79332 0.875836 2.64634C0.798204 2.58311 0.706879 2.53888 0.609136 2.51718C0.511392 2.49548 0.409931 2.4969 0.312836 2.52134C0.219014 2.56693 0.139909 2.63799 0.0845609 2.72641C0.0292122 2.81482 -0.000147711 2.91702 -0.000164032 3.02134L-0.000164032 10.9783C-0.000239017 11.0825 0.0289718 11.1847 0.084137 11.2731C0.139302 11.3615 0.218201 11.4326 0.311836 11.4783C0.408748 11.5031 0.510127 11.5047 0.607764 11.483C0.705401 11.4612 0.796552 11.4168 0.873836 11.3533C2.37432 10.2064 3.71898 8.86877 4.87384 7.37434C4.96162 7.27003 5.00695 7.13653 5.00084 7.00034Z" fill="white"/>
</svg>
