<svg width="4" height="6" viewBox="0 0 4 6" fill="none" xmlns="http://www.w3.org/2000/svg">
<path d="M3.49956 3.00021C3.50413 2.90937 3.47294 2.82017 3.41209 2.75011C2.60394 1.75341 1.66299 0.861313 0.613 0.0963364C0.558676 0.0541654 0.494769 0.0246683 0.426371 0.0101946C0.357973 -0.00427908 0.286973 -0.00332928 0.219028 0.0129684C0.153374 0.043374 0.0980194 0.0907693 0.059288 0.149738C0.0205564 0.208707 1.12057e-05 0.27687 -2.38419e-07 0.346441L-2.38419e-07 5.65332C-5.26905e-05 5.72281 0.0203884 5.79093 0.0589914 5.84989C0.0975943 5.90885 0.152806 5.95629 0.218329 5.98679C0.286145 6.00329 0.357087 6.00435 0.425411 5.98987C0.493734 5.97538 0.557519 5.94577 0.611601 5.90342C1.6616 5.13845 2.60255 4.24635 3.41069 3.24965C3.47212 3.18008 3.50384 3.09104 3.49956 3.00021Z" fill="#006466"/>
</svg>
