<svg width="32" height="32" viewBox="0 0 32 32" fill="none" xmlns="http://www.w3.org/2000/svg">
<g clip-path="url(#clip0_2324_5496)">
<path d="M3.87473 31.6081L2.08049 29.8269C1.95632 29.703 1.85865 29.5553 1.79143 29.3933C1.72421 29.2313 1.68987 29.0582 1.68987 28.8829C1.68987 28.7075 1.72421 28.5331 1.79143 28.3712C1.85865 28.2092 1.95632 28.0627 2.08049 27.9389L4.2393 25.7918C4.3633 25.6664 4.51147 25.5667 4.67419 25.4988C4.83691 25.4309 5.01087 25.396 5.1872 25.396C5.36353 25.396 5.53749 25.4309 5.70021 25.4988C5.86294 25.5667 6.01111 25.6664 6.1351 25.7918L7.92674 27.573C8.0509 27.6968 8.14858 27.8446 8.21579 28.0066C8.28301 28.1686 8.31735 28.3416 8.31735 28.517C8.31735 28.6924 8.28301 28.8667 8.21579 29.0287C8.14858 29.1907 8.0509 29.3371 7.92674 29.461L5.76271 31.6081C5.63886 31.7322 5.48981 31.8312 5.32782 31.8984C5.16584 31.9657 4.99279 32 4.81742 32C4.64204 32 4.46899 31.9657 4.30701 31.8984C4.14503 31.8312 3.99858 31.7322 3.87473 31.6081ZM13.5829 30.0235C13.5021 30.022 13.4223 30.0044 13.3485 29.9714C13.2747 29.9384 13.2081 29.8913 13.1532 29.8321L3.83827 20.5523C3.7153 20.434 3.643 20.2724 3.63775 20.1018C3.64209 20.0169 3.66575 19.9335 3.70285 19.857C3.73996 19.7805 3.7899 19.7125 3.85389 19.6565L4.96846 18.6291C5.07573 18.5309 5.21626 18.4748 5.36168 18.4716C5.50066 18.4613 5.63744 18.5023 5.74969 18.5849C9.33608 21.2123 12.5047 24.3674 15.1454 27.9441C15.2302 28.0634 15.2706 28.2082 15.2599 28.3542C15.2492 28.5003 15.1868 28.6378 15.0855 28.7435L14.036 29.8373C13.9811 29.8965 13.9145 29.9436 13.8407 29.9766C13.7669 30.0096 13.6871 30.0285 13.6063 30.03L13.5829 30.0235ZM13.1089 22.4611L11.2652 20.6265C11.1446 20.5061 11.0493 20.3633 10.984 20.2059C10.9187 20.0485 10.885 19.8803 10.885 19.7099C10.885 19.5394 10.9187 19.3699 10.984 19.2125C11.0493 19.0551 11.1446 18.9123 11.2652 18.7919L26.9264 3.20365C27.4164 2.73581 28.0692 2.47782 28.7467 2.48491C29.4241 2.492 30.0712 2.76341 30.5513 3.24141C31.0314 3.7194 31.3069 4.36607 31.3169 5.04346C31.327 5.72085 31.0717 6.37562 30.606 6.86764L14.95 22.4611C14.7047 22.7025 14.375 22.8387 14.0308 22.8387C13.6866 22.8387 13.3543 22.7025 13.1089 22.4611ZM1.31748 17.2958C0.903428 15.8916 0.694737 14.4344 0.700304 12.9704V3.54479C0.702498 2.99777 0.893349 2.46766 1.24196 2.04612C1.59057 1.62457 2.07485 1.33716 2.61173 1.23233C9.84396 -0.390795 17.3445 -0.410746 24.5853 1.17374L14.5881 10.9978L8.42152 15.2191H3.96066L1.32529 17.2984L1.31748 17.2958ZM6.03094 7.07207L7.81476 9.4353L9.58296 7.07207L7.81476 4.71794L6.03094 7.07207Z" fill="#ED52CB"/>
</g>
<defs>
<clipPath id="clip0_2324_5496">
<rect width="32" height="32" fill="white"/>
</clipPath>
</defs>
</svg>
