<svg width="32" height="32" viewBox="0 0 32 32" fill="none" xmlns="http://www.w3.org/2000/svg">
<path fill-rule="evenodd" clip-rule="evenodd" d="M15.9887 0.0086875C14.0109 -0.0793098 12.0614 0.50327 10.4558 1.66207C9.2784 2.64389 8.3763 3.91511 7.83805 5.35101C7.51613 6.11563 7.26329 6.86084 7.03825 7.52412L7.03824 7.52413C6.88679 7.97051 6.74793 8.3798 6.60907 8.73293C6.26386 9.61079 5.9698 9.95298 5.72528 10.0393C4.04377 10.5871 2.58131 11.6584 1.55143 13.0968C0.521551 14.5351 -0.021813 16.2652 0.000670656 18.0344C0.000442774 18.3476 0.119471 18.649 0.333534 18.8775C0.547597 19.1059 0.840609 19.2441 1.15294 19.2641C2.11454 19.2147 3.06396 19.4969 3.84265 20.0636C4.24251 20.4665 4.48755 20.9976 4.53465 21.5634C4.58485 21.8633 4.61418 22.1857 4.64526 22.5274C4.68246 22.9362 4.72217 23.3726 4.80314 23.8309C4.86682 24.293 5.02339 24.7374 5.26341 25.1373C5.58694 25.62 6.05872 25.9843 6.60747 26.175C7.51967 26.4408 8.40856 26.7809 9.26521 27.192C9.83587 27.4982 10.2735 28.0044 10.4942 28.6135C10.8899 29.5555 11.5259 30.3771 12.3385 30.9961C13.4558 31.7199 14.775 32.0679 16.1037 31.989C17.0695 32.0075 18.0247 31.7853 18.8832 31.3423C19.7416 30.8992 20.4764 30.2494 21.0213 29.4514C21.2113 29.1712 21.3744 28.9099 21.5195 28.6774C21.6783 28.4229 21.8157 28.2028 21.9434 28.0299C22.0871 27.7755 22.32 27.5835 22.5971 27.491C23.9802 27.143 25.1767 26.2762 25.9388 25.0701C26.3819 24.2391 26.693 23.3441 26.861 22.4173C27.0336 21.7345 27.139 21.4371 27.5146 21.1877C28.5011 20.7431 29.5959 20.5964 30.6646 20.7655C30.8322 20.7756 31.0001 20.7512 31.158 20.694C31.3158 20.6367 31.4604 20.5478 31.5826 20.4326C31.7049 20.3175 31.8024 20.1785 31.869 20.0243C31.9357 19.8701 31.9701 19.7039 31.9703 19.5359C32.0911 17.6737 31.8429 15.806 31.2399 14.0401C30.7708 12.9873 30.048 12.0673 29.1362 11.3627C28.2244 10.658 27.1522 10.1907 26.0155 10.0025L26.0112 10.0026C25.9832 10.0031 25.9467 10.0037 25.8237 9.84265C25.633 9.55518 25.4785 9.24531 25.3635 8.92001C25.2235 8.57108 25.0792 8.15663 24.9205 7.70037L24.9204 7.70033C24.6878 7.03174 24.4239 6.27335 24.0961 5.49972C23.5365 4.04432 22.6257 2.75009 21.4448 1.73243C19.8823 0.539509 17.9525 -0.0701528 15.9887 0.0086875ZM11.0723 9.84743C11.0723 8.48826 11.8985 7.38814 12.9165 7.38814C13.9346 7.38814 14.7608 8.49626 14.7608 9.84903C14.7608 11.2018 13.9346 12.3083 12.9165 12.3083C11.8985 12.3083 11.0723 11.2066 11.0723 9.84743ZM15.9898 9.84903C15.9898 8.48346 16.816 7.38814 17.8341 7.38814C18.8521 7.38814 19.6783 8.49626 19.6783 9.84903C19.6783 11.2018 18.8521 12.3083 17.8341 12.3083C16.816 12.3083 15.9898 11.2146 15.9898 9.84903Z" fill="#0F0D0F"/>
</svg>
