<svg width="56" height="56" viewBox="0 0 56 56" fill="none" xmlns="http://www.w3.org/2000/svg">
<rect width="56" height="56" rx="12" fill="#19161A"/>
<path d="M23.3335 17.2307L19.6002 19.3846L18.2002 21L16.8002 23.1538L16.3335 28.5384L17.2668 33.3846L19.1335 37.1538L21.0002 39.3077L21.9335 38.7692L23.3335 37.1538L26.1335 37.6923H31.2668L35.9335 35L38.2668 32.3077L39.6668 28.5384L39.2002 24.2307L37.3335 20.4615L35.0002 18.3077L30.8002 16.6923L27.0668 16.1538L23.3335 17.2307Z" fill="#006466" fill-opacity="0.1"/>
<path d="M20.6479 40.7368L20.6479 40.7368C21.085 41.1626 21.7686 41.1889 22.2273 40.7078C22.8746 40.0299 23.3933 39.027 23.8977 38.0072C25.18 38.4177 26.5204 38.7385 27.9588 38.7385C34.8759 38.7385 40.6999 33.561 40.6999 26.8567C40.6999 20.1541 34.8751 14.9769 27.9588 14.9769C24.3795 14.9769 20.6501 16.365 18.0249 19.4089C14.9633 22.9589 14.791 27.8742 15.9938 32.2147C16.8657 35.3627 18.3535 38.4983 20.6479 40.7368ZM23.755 35.6861L23.7548 35.6861C23.5261 35.5991 23.2775 35.6088 23.0549 35.713C22.8328 35.8169 22.6534 36.0067 22.5454 36.2449L22.5454 36.245C22.1543 37.1088 21.7598 37.6742 21.3699 38.2154C19.7957 36.3934 18.6014 34.0373 17.906 31.5264L17.906 31.5264C16.8422 27.6876 17.0108 23.8447 19.4549 21.0107C21.6224 18.4975 24.8384 17.2606 27.9588 17.2606C34.0078 17.2606 38.694 21.7019 38.694 26.8567C38.694 32.014 34.0088 36.4548 27.9588 36.4548C26.4638 36.4548 25.0438 36.1789 23.755 35.6861Z" fill="#006466" stroke="#006466" stroke-width="0.2"/>
</svg>
