<svg width="56" height="56" viewBox="0 0 56 56" fill="none" xmlns="http://www.w3.org/2000/svg">
<rect width="56" height="56" rx="12" fill="#19161A"/>
<mask id="path-2-outside-1_2142_7788" maskUnits="userSpaceOnUse" x="16" y="14.5" width="19" height="16" fill="black">
<rect fill="white" x="16" y="14.5" width="19" height="16"/>
<path fill-rule="evenodd" clip-rule="evenodd" d="M25.0504 15.7248C25.3618 15.5749 25.7037 15.5 26.0455 15.5C26.3873 15.5 26.7293 15.5749 27.0407 15.7248L33.5062 18.8432L32.726 19.6115L26.5813 16.6482C26.2456 16.4872 25.8455 16.4872 25.5097 16.6482L18.7256 19.9199C18.3116 20.1203 18.0437 20.5436 18.0437 20.9975V25.679C18.0437 26.6336 18.2081 27.5905 18.5187 28.5196L17.6433 29.1661C17.2236 28.0331 17 26.8553 17 25.679V20.9975C17 20.1547 17.4974 19.3685 18.2663 18.9968L25.0504 15.7248Z"/>
</mask>
<path fill-rule="evenodd" clip-rule="evenodd" d="M25.0504 15.7248C25.3618 15.5749 25.7037 15.5 26.0455 15.5C26.3873 15.5 26.7293 15.5749 27.0407 15.7248L33.5062 18.8432L32.726 19.6115L26.5813 16.6482C26.2456 16.4872 25.8455 16.4872 25.5097 16.6482L18.7256 19.9199C18.3116 20.1203 18.0437 20.5436 18.0437 20.9975V25.679C18.0437 26.6336 18.2081 27.5905 18.5187 28.5196L17.6433 29.1661C17.2236 28.0331 17 26.8553 17 25.679V20.9975C17 20.1547 17.4974 19.3685 18.2663 18.9968L25.0504 15.7248Z" fill="#006466"/>
<path d="M25.0504 15.7248L24.8833 15.3777L24.883 15.3778L25.0504 15.7248ZM27.0407 15.7248L27.208 15.3778L27.2078 15.3777L27.0407 15.7248ZM33.5062 18.8432L33.7765 19.1177L34.1664 18.7338L33.6736 18.4961L33.5062 18.8432ZM32.726 19.6115L32.5586 19.9585L32.803 20.0764L32.9963 19.886L32.726 19.6115ZM26.5813 16.6482L26.7487 16.3012L26.7479 16.3008L26.5813 16.6482ZM25.5097 16.6482L25.3431 16.3008L25.3424 16.3012L25.5097 16.6482ZM18.7256 19.9199L18.5582 19.5728L18.5577 19.5731L18.7256 19.9199ZM18.5187 28.5196L18.7476 28.8295L18.9729 28.6631L18.8841 28.3974L18.5187 28.5196ZM17.6433 29.1661L17.282 29.2999L17.4599 29.7805L17.8722 29.476L17.6433 29.1661ZM18.2663 18.9968L18.0989 18.6498L18.0986 18.65L18.2663 18.9968ZM26.0455 15.1147C25.6478 15.1147 25.2486 15.2018 24.8833 15.3777L25.2175 16.072C25.475 15.9481 25.7596 15.8853 26.0455 15.8853V15.1147ZM27.2078 15.3777C26.8425 15.2018 26.4432 15.1147 26.0455 15.1147V15.8853C26.3315 15.8853 26.6161 15.9481 26.8735 16.072L27.2078 15.3777ZM33.6736 18.4961L27.208 15.3778L26.8733 16.0719L33.3388 19.1902L33.6736 18.4961ZM32.9963 19.886L33.7765 19.1177L33.2359 18.5686L32.4556 19.337L32.9963 19.886ZM26.4139 16.9953L32.5586 19.9585L32.8933 19.2645L26.7487 16.3012L26.4139 16.9953ZM25.6764 16.9956C25.9067 16.8851 26.1843 16.8851 26.4147 16.9956L26.7479 16.3008C26.3069 16.0893 25.7842 16.0893 25.3431 16.3008L25.6764 16.9956ZM18.893 20.2669L25.6771 16.9953L25.3424 16.3012L18.5582 19.5729L18.893 20.2669ZM18.429 20.9975C18.429 20.6938 18.6101 20.4039 18.8935 20.2667L18.5577 19.5731C18.0131 19.8368 17.6584 20.3933 17.6584 20.9975H18.429ZM18.429 25.679V20.9975H17.6584V25.679H18.429ZM18.8841 28.3974C18.5858 27.505 18.429 26.5893 18.429 25.679H17.6584C17.6584 26.678 17.8305 27.6761 18.1533 28.6417L18.8841 28.3974ZM17.8722 29.476L18.7476 28.8295L18.2898 28.2096L17.4144 28.8562L17.8722 29.476ZM16.6147 25.679C16.6147 26.9042 16.8476 28.1273 17.282 29.2999L18.0046 29.0323C17.5996 27.9389 17.3853 26.8063 17.3853 25.679H16.6147ZM16.6147 20.9975V25.679H17.3853V20.9975H16.6147ZM18.0986 18.65C17.1988 19.0849 16.6147 20.0045 16.6147 20.9975H17.3853C17.3853 20.3049 17.796 19.6522 18.434 19.3437L18.0986 18.65ZM24.883 15.3778L18.0989 18.6498L18.4336 19.3439L25.2178 16.0719L24.883 15.3778Z" fill="#006466" mask="url(#path-2-outside-1_2142_7788)"/>
<path d="M18.8158 40.2664L17.4844 38.9649C17.3922 38.8744 17.3198 38.7665 17.2699 38.6481C17.2363 38.5517 17.2363 38.5099 17.2363 38.3817C17.2363 38.2536 17.3949 38.1262 17.4448 38.0078C17.4947 37.8894 17.6061 37.7824 17.6983 37.6919L19.2158 36.0917C19.3078 36.0001 19.4177 35.9272 19.5385 35.8776C19.6592 35.828 19.9191 35.8024 19.9191 35.8024C19.9191 35.8024 20.0496 35.7528 20.1703 35.8024C20.2911 35.8521 20.401 35.9249 20.493 36.0165L21.8225 37.318C21.9146 37.4085 21.9871 37.5165 22.037 37.6349C22.0868 37.7532 21.9322 37.9712 21.9322 38.0994C21.9322 38.2275 21.8231 38.2942 21.7732 38.4125C21.7233 38.5309 21.6248 38.6071 21.5326 38.6976L20.0454 40.1453C19.9535 40.236 19.8723 40.3293 19.7521 40.3784C19.6319 40.4275 19.5572 40.4786 19.427 40.4786C19.2969 40.4786 19.2567 40.5277 19.1365 40.4786C19.0163 40.4295 18.9077 40.3572 18.8158 40.2664ZM26.0195 39.1086C25.9595 39.1075 25.9003 39.0946 25.8456 39.0705C25.7908 39.0464 25.7414 39.012 25.7007 38.9687L18.7887 32.188C18.6975 32.1016 18.6438 31.9835 18.6399 31.8588C18.6431 31.7968 18.6607 31.7359 18.6882 31.68C18.7158 31.6241 18.7528 31.5744 18.8003 31.5335L19.6273 30.7828C19.7069 30.711 19.8112 30.67 19.9191 30.6677C20.0223 30.6601 20.1237 30.6901 20.207 30.7505C22.8682 32.6703 25.2195 34.9757 27.1789 37.5892C27.2418 37.6764 27.2719 37.7822 27.2639 37.8889C27.256 37.9956 27.2096 38.0961 27.1345 38.1733L26.3557 38.9725C26.315 39.0158 26.2655 39.0502 26.2108 39.0743C26.1561 39.0984 26.0968 39.1123 26.0369 39.1133L26.0195 39.1086ZM25.6678 33.5828L24.2997 32.2423C24.2102 32.1543 24.1395 32.05 24.091 31.935C24.0426 31.8199 24.091 31.6736 24.091 31.6736C24.091 31.6736 24.1962 31.4749 24.2569 31.3914C24.3356 31.2832 24.4194 31.2084 24.5089 31.1205L35.8169 20.0436C36.1804 19.7018 36.6397 19.2615 37.1424 19.2666C37.645 19.2718 38.0333 19.2406 38.3895 19.5899C38.7458 19.9392 38.9912 20.2851 38.9987 20.7801C39.0061 21.275 38.8124 21.6679 38.4669 22.0274L26.8365 33.4151C26.6544 33.5915 26.4593 33.7898 26.2039 33.7898C25.9485 33.7898 25.8499 33.7592 25.6678 33.5828Z" fill="#006466"/>
<path fill-rule="evenodd" clip-rule="evenodd" d="M34.5361 18.901L22.8953 30.2323L20.1752 28.0001L17.9084 29.3394L17.4551 23.5358L17.9084 19.9644L26.0688 15.9465L34.5361 18.901ZM26.0688 19.5179C25.5681 19.5179 25.1621 19.9239 25.1621 20.4246V23.0755C25.1621 23.5763 25.5681 23.9822 26.0688 23.9822C26.5696 23.9822 26.9755 23.5763 26.9755 23.0755V20.4246C26.9755 19.9239 26.5696 19.5179 26.0688 19.5179Z" fill="#006466"/>
</svg>
