<svg width="56" height="56" viewBox="0 0 56 56" fill="none" xmlns="http://www.w3.org/2000/svg">
<rect width="56" height="56" rx="12" fill="#19161A"/>
<path fill-rule="evenodd" clip-rule="evenodd" d="M27.088 14.3856C27.3226 14.144 27.6435 14.0054 27.9801 14.0002C28.1502 13.9975 28.3191 14.029 28.4767 14.0928C28.6344 14.1566 28.7776 14.2513 28.898 14.3715C29.0184 14.4916 29.1134 14.6347 29.1775 14.7922C29.2416 14.9498 29.2734 15.1186 29.2711 15.2886V16.6442C32.9856 17.0504 36.1434 19.196 37.9107 22.2748C38.3975 23.1226 37.7896 24.1864 36.8109 24.1864C36.3406 24.1864 35.9276 23.9154 35.6912 23.5086C34.1838 20.9032 31.3941 19.1638 28.1465 19.1119C28.0533 19.1222 27.9592 19.1222 27.8659 19.1119C24.6129 19.1595 21.8182 20.8998 20.3088 23.5086C20.0724 23.9154 19.6595 24.1864 19.1891 24.1864C18.2104 24.1864 17.6025 23.1226 18.0893 22.2748C19.8566 19.196 23.0144 17.0504 26.7289 16.6442V15.2886C26.7243 14.9519 26.8534 14.6272 27.088 14.3856ZM18.0893 33.7247C17.6025 32.8768 18.2104 31.813 19.1891 31.813C19.6595 31.813 20.0724 32.084 20.3088 32.4908C21.8162 35.0962 24.6059 36.8356 27.8535 36.8875C27.8956 36.8829 27.9378 36.8805 27.9801 36.8801C28.0307 36.8796 28.0813 36.882 28.1316 36.8875C31.3857 36.8408 34.1814 35.1003 35.6912 32.4908C35.9276 32.084 36.3406 31.813 36.8109 31.813C37.7896 31.813 38.3975 32.8768 37.9107 33.7247C36.1434 36.8034 32.9856 38.949 29.2711 39.3553V40.7108C29.2735 40.8792 29.2424 41.0465 29.1796 41.2028C29.1168 41.3591 29.0235 41.5013 28.9052 41.6213C28.787 41.7412 28.646 41.8365 28.4906 41.9015C28.3352 41.9665 28.1685 42 28 42C27.8315 42 27.6648 41.9665 27.5094 41.9015C27.354 41.8365 27.213 41.7412 27.0948 41.6213C26.9765 41.5013 26.8832 41.3591 26.8204 41.2028C26.7576 41.0465 26.7265 40.8792 26.7289 40.7108V39.3553C23.0144 38.949 19.8566 36.8034 18.0893 33.7247ZM24.9127 25.3996C24.3456 26.108 24.0339 26.9869 24.0273 27.8943L24.0385 27.9056C24.0353 28.8936 24.3958 29.8486 25.0504 30.5886C25.7051 31.3287 26.6091 31.8022 27.5901 31.9196C28.5712 32.0371 29.5608 31.79 30.3716 31.2253C31.1824 30.6607 31.7578 29.818 31.9879 28.8571C31.9801 28.8783 31.9714 28.8992 31.9616 28.9196C31.9909 28.8562 32.0103 28.7884 32.0188 28.7187L32.0273 28.68V28.6512V28.6196C32.0273 28.4537 31.9705 28.2927 31.8656 28.1642C31.7607 28.0357 31.6149 27.9472 31.4524 27.914C31.4458 27.9133 31.4386 27.9124 31.4308 27.9115C31.3929 27.9071 31.3435 27.9014 31.3076 27.9014H31.1994H29.4159C29.2388 27.901 29.0635 27.8655 28.9001 27.7974C28.7366 27.7292 28.5879 27.6298 28.463 27.5043C28.338 27.3788 28.2394 27.2296 28.172 27.0658C28.1046 26.9021 28.069 26.7271 28.0694 26.55V24.6962H28.054C28.054 24.5053 27.9781 24.3223 27.8431 24.1874C27.7082 24.0524 27.5252 23.9766 27.3343 23.9766C27.2861 23.9772 27.2386 23.9812 27.191 23.9892C27.0524 24.0145 26.9234 24.0811 26.8228 24.1797C26.9136 24.0879 27.0281 24.0218 27.153 23.9892C26.2691 24.1942 25.4798 24.6912 24.9127 25.3996Z" fill="#ED52CB"/>
</svg>
