<svg width="56" height="56" viewBox="0 0 56 56" fill="none" xmlns="http://www.w3.org/2000/svg">
<rect width="56" height="56" rx="12" fill="#19161A"/>
<path d="M23 23.5L21.5 25L21 38L22 40.5L26 41L39 38.5L40.5 37.5L41 30V24.5L39.5 22L37.5 21L23 23.5Z" fill="#006466" fill-opacity="0.1"/>
<path fill-rule="evenodd" clip-rule="evenodd" d="M30.9954 16.0357L18.3041 18.072C16.9764 18.285 16 19.4306 16 20.7752V31.3327C16 32.172 16.374 32.912 16.9551 33.4105V35.724C15.2407 35.0252 14 33.3435 14 31.3327V20.7752C14 18.4483 15.6897 16.4659 17.9872 16.0972L30.6786 14.0609C32.6441 13.7456 34.4837 14.6818 35.4534 16.2355L33.1077 16.576C32.5337 16.1302 31.782 15.9095 30.9954 16.0357ZM24.1381 24.0004L36.8294 21.9641C38.4932 21.6971 40.0009 22.9822 40.0009 24.6673V35.2248C40.0009 36.5694 39.0245 37.715 37.6969 37.928L25.0055 39.9643C23.3417 40.2312 21.834 38.9461 21.834 37.2611V26.7036C21.834 25.359 22.8104 24.2134 24.1381 24.0004ZM19.834 26.7036C19.834 24.3767 21.5237 22.3942 23.8212 22.0256L36.5126 19.9893C39.3918 19.5274 42.0009 21.7512 42.0009 24.6673V35.2248C42.0009 37.5516 40.3112 39.5341 38.0137 39.9027L25.3223 41.939C22.4431 42.401 19.834 40.1771 19.834 37.2611V26.7036Z" fill="#006466"/>
</svg>
