<svg width="56" height="56" viewBox="0 0 56 56" fill="none" xmlns="http://www.w3.org/2000/svg">
<rect width="56" height="56" rx="12" fill="#19161A"/>
<path d="M28 15.5L18 20.5L17.5 23.5V28.5L19.5 33.5L23.5 38.5L28 40.5L31.5 38.5L34.5 36L37.5 30.5L38 23.5L37.5 20.5L28 15.5Z" fill="#006466" fill-opacity="0.1"/>
<path d="M26.5749 15.0501L26.5747 15.0501L18.4133 19.0474L18.4131 19.0475C17.4026 19.5437 16.75 20.5911 16.75 21.7161V27.4354C16.75 33.1387 20.9003 38.7232 26.8111 41.0463L26.8115 41.0465C27.1559 41.181 27.5173 41.25 27.8818 41.25C28.2463 41.25 28.6077 41.181 28.9521 41.0465L28.9526 41.0463C34.8632 38.7211 39.0136 33.1388 39.0136 27.4354V21.7161C39.0136 20.5889 38.3609 19.5436 37.3505 19.0475L37.3503 19.0474L29.1889 15.0501L29.1887 15.0501C28.7789 14.8497 28.3299 14.75 27.8818 14.75C27.4337 14.75 26.9847 14.8497 26.5749 15.0501ZM28.3095 39.4112L28.3093 39.4112C28.0333 39.5199 27.7303 39.5199 27.4543 39.4112L27.4541 39.4112C22.1698 37.335 18.5056 32.3969 18.5056 27.4354V21.7161C18.5056 21.257 18.7735 20.827 19.186 20.6241C19.1861 20.624 19.1861 20.624 19.1862 20.624L27.3472 16.6273C27.3472 16.6273 27.3472 16.6273 27.3472 16.6273C27.5131 16.546 27.6972 16.5044 27.8818 16.5044C28.0664 16.5044 28.2505 16.546 28.4164 16.6273C28.4164 16.6273 28.4164 16.6273 28.4164 16.6273L36.5774 20.624C36.5774 20.624 36.5775 20.624 36.5775 20.624C36.9903 20.827 37.258 21.2551 37.258 21.7161V27.4354C37.258 32.3969 33.5938 37.335 28.3095 39.4112Z" fill="#006466" stroke="#006466" stroke-width="0.5"/>
</svg>
