<svg width="32" height="29" viewBox="0 0 32 29" fill="none" xmlns="http://www.w3.org/2000/svg">
<g clip-path="url(#clip0_1_2)">
<path d="M11.6 0C10.8589 0.00489188 10.1496 0.301462 9.62551 0.825507C9.10146 1.34955 8.80489 2.0589 8.8 2.8V5.2H4.4C3.23348 5.20141 2.11514 5.66543 1.29029 6.49029C0.465435 7.31514 0.0014114 8.43348 0 9.6V12.4H6.4V12C6.4 11.6817 6.52643 11.3765 6.75147 11.1515C6.97652 10.9264 7.28174 10.8 7.6 10.8H10C10.3183 10.8 10.6235 10.9264 10.8485 11.1515C11.0736 11.3765 11.2 11.6817 11.2 12V12.4H20.8V12C20.8 11.6817 20.9264 11.3765 21.1515 11.1515C21.3765 10.9264 21.6817 10.8 22 10.8H24.4C24.7183 10.8 25.0235 10.9264 25.2485 11.1515C25.4736 11.3765 25.6 11.6817 25.6 12V12.4H32V9.6C31.9986 8.43348 31.5346 7.31514 30.7097 6.49029C29.8849 5.66543 28.7665 5.20141 27.6 5.2H23.2V2.8C23.1951 2.0589 22.8985 1.34955 22.3745 0.825507C21.8504 0.301462 21.1411 0.00489188 20.4 0H11.6ZM11.6 2.4H20.4C20.4532 2.39732 20.5064 2.40584 20.5562 2.42499C20.6059 2.44415 20.6511 2.47352 20.6888 2.51121C20.7265 2.5489 20.7559 2.59407 20.775 2.64382C20.7942 2.69356 20.8027 2.74676 20.8 2.8V5.2H11.2V2.8C11.1973 2.74676 11.2058 2.69356 11.225 2.64382C11.2441 2.59407 11.2735 2.5489 11.3112 2.51121C11.3489 2.47352 11.3941 2.44415 11.4438 2.42499C11.4936 2.40584 11.5468 2.39732 11.6 2.4ZM0 14.8V24C0.0014114 25.1665 0.465435 26.2849 1.29029 27.1097C2.11514 27.9346 3.23348 28.3986 4.4 28.4H27.6C28.7665 28.3986 29.8849 27.9346 30.7097 27.1097C31.5346 26.2849 31.9986 25.1665 32 24V14.8H25.6V15.2C25.6 15.5183 25.4736 15.8235 25.2485 16.0485C25.0235 16.2736 24.7183 16.4 24.4 16.4H22C21.6817 16.4 21.3765 16.2736 21.1515 16.0485C20.9264 15.8235 20.8 15.5183 20.8 15.2V14.8H11.2V15.2C11.2 15.5183 11.0736 15.8235 10.8485 16.0485C10.6235 16.2736 10.3183 16.4 10 16.4H7.6C7.28174 16.4 6.97652 16.2736 6.75147 16.0485C6.52643 15.8235 6.4 15.5183 6.4 15.2V14.8H0Z" fill="#D1D1D1"/>
</g>
<defs>
<clipPath id="clip0_1_2">
<rect width="32" height="28.4" fill="white"/>
</clipPath>
</defs>
</svg>
