<svg width="32" height="30" viewBox="0 0 32 30" fill="none" xmlns="http://www.w3.org/2000/svg">
<g clip-path="url(#clip0_5559_3157)">
<path d="M4.4 0C3.23305 0 2.11389 0.457682 1.28873 1.27236C0.463571 2.08704 0 3.19198 0 4.34411V19.351C0 19.9215 0.11381 20.4864 0.33493 21.0134C0.556051 21.5405 0.880153 22.0194 1.28873 22.4228C1.69731 22.8262 2.18236 23.1461 2.71619 23.3644C3.25003 23.5828 3.82218 23.6951 4.4 23.6951H20.8V22.6288C20.1608 21.9083 19.6756 21.0677 19.3737 20.1574C19.0718 19.2471 18.9593 18.286 19.043 17.3317C19.1268 16.3774 19.405 15.4497 19.8609 14.6042C20.3169 13.7588 20.9412 13.013 21.6964 12.4117C22.4516 11.8104 23.3221 11.3661 24.2556 11.1052C25.1892 10.8444 26.1664 10.7726 27.1288 10.894C28.0911 11.0154 29.0187 11.3275 29.8558 11.8117C30.6929 12.2959 31.4222 12.9421 32 13.7116V4.34411C32 3.19198 31.5364 2.08704 30.7113 1.27236C29.8861 0.457682 28.767 0 27.6 0H4.4ZM7.6 6.3187H24.4C24.7183 6.3187 25.0235 6.44352 25.2485 6.66571C25.4736 6.88789 25.6 7.18924 25.6 7.50346C25.6 7.81767 25.4736 8.11902 25.2485 8.3412C25.0235 8.56339 24.7183 8.68821 24.4 8.68821H7.6C7.28174 8.68821 6.97652 8.56339 6.75147 8.3412C6.52643 8.11902 6.4 7.81767 6.4 7.50346C6.4 7.18924 6.52643 6.88789 6.75147 6.66571C6.97652 6.44352 7.28174 6.3187 7.6 6.3187ZM26.4 12.6374C25.2924 12.6374 24.2097 12.9617 23.2888 13.5692C22.3679 14.1767 21.6501 15.0402 21.2263 16.0505C20.8024 17.0607 20.6915 18.1724 20.9076 19.2449C21.1237 20.3174 21.657 21.3025 22.4402 22.0758C23.2234 22.849 24.2212 23.3756 25.3075 23.5889C26.3938 23.8022 27.5198 23.6927 28.543 23.2743C29.5663 22.8558 30.4409 22.1471 31.0562 21.2379C31.6716 20.3287 32 19.2598 32 18.1663C32 16.6999 31.41 15.2936 30.3598 14.2568C29.3096 13.2199 27.8852 12.6374 26.4 12.6374ZM7.6 15.0069H14.8C15.1183 15.0069 15.4235 15.1317 15.6485 15.3539C15.8736 15.5761 16 15.8774 16 16.1917C16 16.5059 15.8736 16.8072 15.6485 17.0294C15.4235 17.2516 15.1183 17.3764 14.8 17.3764H7.6C7.28174 17.3764 6.97652 17.2516 6.75147 17.0294C6.52643 16.8072 6.4 16.5059 6.4 16.1917C6.4 15.8774 6.52643 15.5761 6.75147 15.3539C6.97652 15.1317 7.28174 15.0069 7.6 15.0069ZM22.4 24.0742V29.2082C22.4002 29.3523 22.4404 29.4936 22.5161 29.6167C22.5919 29.7399 22.7003 29.8403 22.8296 29.907C22.959 29.9737 23.1044 30.0042 23.25 29.9952C23.3957 29.9862 23.5361 29.938 23.656 29.8559L25.944 28.2762C26.0779 28.1845 26.237 28.1353 26.4 28.1353C26.563 28.1353 26.7221 28.1845 26.856 28.2762L29.144 29.8559C29.2639 29.938 29.4043 29.9862 29.55 29.9952C29.6956 30.0042 29.841 29.9737 29.9704 29.907C30.0997 29.8403 30.2081 29.7399 30.2839 29.6167C30.3596 29.4936 30.3998 29.3523 30.4 29.2082V24.0742C29.2166 24.8568 27.8243 25.2746 26.4 25.2746C24.9757 25.2746 23.5834 24.8568 22.4 24.0742Z" fill="#058669"/>
</g>
<defs>
<clipPath id="clip0_5559_3157">
<rect width="32" height="30" fill="white"/>
</clipPath>
</defs>
</svg>
