<svg width="32" height="32" viewBox="0 0 32 32" fill="none" xmlns="http://www.w3.org/2000/svg">
<path d="M19.1956 28.2797L1.29231 17.5977C0.694282 17.2306 0.262642 16.6468 0.0866095 15.9675C-0.0894227 15.2882 0.00515021 14.5672 0.349625 13.9558L2.9303 9.33093C3.0927 9.02971 3.31389 8.76449 3.58133 8.551C3.84876 8.3375 4.15785 8.18041 4.48756 8.08877C4.81726 7.99713 5.16131 7.97358 5.50056 8.01846C5.83981 8.06333 6.16693 8.17627 6.46148 8.35048L24.3621 19.0325C24.9602 19.4016 25.3919 19.9875 25.5678 20.6679C25.7438 21.3483 25.6517 22.0708 25.3074 22.6835L22.7242 27.3071C22.5046 27.7092 22.1828 28.0452 21.7893 28.2797C21.3958 28.5143 20.9453 28.6387 20.4872 28.6404C20.0316 28.639 19.5864 28.514 19.1956 28.2797ZM27.461 21.3815C27.7302 20.7795 27.7694 20.1008 27.573 19.4713C27.3766 18.8419 26.957 18.3057 26.3933 17.9636L5.80264 5.68387C5.25623 5.36009 4.60963 5.25101 3.98757 5.37919C4.21105 5.31845 4.44088 5.28714 4.67245 5.28414C4.89887 5.28573 5.12397 5.31707 5.34171 5.37919L27.8074 11.5952C28.4776 11.7961 29.044 12.2501 29.3855 12.8608C29.7269 13.4715 29.8153 14.1911 29.6355 14.8673L28.3022 20.0273C28.1678 20.5559 27.8761 21.0299 27.4636 21.3867L27.461 21.3815ZM31.6979 12.5444C31.7025 11.9653 31.5194 11.4003 31.1745 10.9351C30.8295 10.4698 30.342 10.1302 29.7865 9.96633L5.76097 3.2998H29.3334C30.0406 3.2998 30.7187 3.58095 31.2188 4.08104C31.7189 4.58112 32 5.25919 32 5.96642V11.2996C32 11.7245 31.8977 12.1433 31.7031 12.521L31.6979 12.5444Z" fill="#146EF5"/>
</svg>
