<svg width="32" height="32" viewBox="0 0 32 32" fill="none" xmlns="http://www.w3.org/2000/svg">
<path d="M4 0H9.33333V8.69561L3.22667 6.10572C2.48 5.79037 2 5.06573 2 4.25387V2.01287C2 0.905793 2.9 0 4 0ZM11.3333 0H20.6667V9.54102L16.52 11.2989C16.3533 11.3727 16.1733 11.4063 16 11.4063C15.8267 11.4063 15.6467 11.3727 15.48 11.2989L11.3333 9.54102V0ZM30 2.01287V4.25387C30 5.06573 29.52 5.79037 28.7733 6.10572L22.6667 8.69561V0H28C29.1 0 30 0.905793 30 2.01287ZM25.918 20.073C26.0353 20.4374 25.9373 20.8373 25.6647 21.105L21.5573 25.1341L22.5273 30.8231C22.592 31.2002 22.4373 31.582 22.1293 31.8074C21.9547 31.9349 21.7487 32 21.5413 32C21.382 32 21.222 31.9618 21.076 31.8846L16 29.1981L10.924 31.8839C10.5873 32.0617 10.1793 32.0329 9.87067 31.8074C9.56267 31.5827 9.40867 31.2009 9.47267 30.8231L10.4427 25.1341L6.33533 21.105C6.06267 20.8379 5.96467 20.4374 6.082 20.073C6.2 19.7087 6.51267 19.443 6.88933 19.388L12.5653 18.558L15.104 13.3823C15.272 13.0387 15.6193 12.8213 16.0007 12.8213C16.382 12.8213 16.7293 13.0387 16.8973 13.3823L19.436 18.558L25.112 19.388C25.4867 19.443 25.8 19.7087 25.918 20.073Z" fill="white"/>
</svg>
