<svg width="32" height="32" viewBox="0 0 32 32" fill="none" xmlns="http://www.w3.org/2000/svg">
<g clip-path="url(#clip0_2324_5523)">
<path d="M8.98584 22.8556C8.9981 21.1741 9.57578 19.5452 10.6267 18.2325C11.6777 16.9197 13.1403 15.9987 14.7784 15.6188C14.547 15.6792 14.3347 15.8017 14.1664 15.9717C14.3528 15.789 14.592 15.6656 14.8488 15.6188C14.9369 15.6039 15.0251 15.5965 15.1144 15.5953C15.4681 15.5953 15.8072 15.7359 16.0573 15.986C16.3074 16.2361 16.448 16.5752 16.448 16.9289H16.4766V20.3643C16.4759 20.6925 16.5418 21.0167 16.6668 21.3202C16.7917 21.6237 16.9744 21.9003 17.2059 22.1328C17.4375 22.3654 17.713 22.5497 18.016 22.6759C18.3189 22.8021 18.6437 22.8679 18.9718 22.8686H22.2771C22.3224 22.8686 22.3976 22.8686 22.4776 22.8686C22.5576 22.8686 22.6739 22.8841 22.7459 22.8921C23.0471 22.9536 23.3172 23.1175 23.5116 23.3557C23.706 23.5938 23.8112 23.8922 23.8112 24.1996C23.8112 24.2236 23.8112 24.2368 23.8112 24.2582V24.3116L23.7955 24.3832C23.7699 24.5934 23.6911 24.7942 23.5663 24.9653C23.6374 24.8649 23.6961 24.7553 23.7382 24.6398C23.3118 26.4204 22.2455 27.9821 20.743 29.0285C19.2404 30.0749 17.4065 30.5327 15.5885 30.3152C13.7704 30.0976 12.0952 29.2201 10.882 27.8486C9.66879 26.4772 9.00083 24.7075 9.00667 22.8764L8.98584 22.8556ZM11.6738 11.0724C2.5923 14.9824 0 13.3384 0 13.3384L4.00065 7.57838C4.00065 7.57838 4.58733 6.33456 5.4488 6.06251C6.13604 5.95753 6.83864 6.10316 7.42829 6.47143L11.6686 8.78952L20.8185 2.35879C20.8185 2.35879 21.8493 1.46712 22.6547 1.61648C23.4602 1.76583 24.0664 2.95003 24.0664 2.95003L32 15.4169C32 15.4169 20.7473 7.15981 11.6738 11.0724Z" fill="#07C2C5"/>
</g>
<defs>
<clipPath id="clip0_2324_5523">
<rect width="32" height="32" fill="white"/>
</clipPath>
</defs>
</svg>
