<svg width="48" height="48" viewBox="0 0 48 48" fill="none" xmlns="http://www.w3.org/2000/svg">
<path d="M21.82 0V4.492C17.3869 4.96653 13.2499 6.94465 10.0973 10.0973C6.94465 13.2499 4.96653 17.3869 4.492 21.82H0V26.18H4.492C4.96653 30.6131 6.94465 34.7501 10.0973 37.9027C13.2499 41.0554 17.3869 43.0335 21.82 43.508V48H26.18V43.508C30.6131 43.0335 34.7501 41.0554 37.9027 37.9027C41.0554 34.7501 43.0335 30.6131 43.508 26.18H48V21.82H43.508C43.0335 17.3869 41.0554 13.2499 37.9027 10.0973C34.7501 6.94465 30.6131 4.96653 26.18 4.492V0H21.82ZM24 8.728C27.0205 8.728 29.9732 9.62369 32.4847 11.3018C34.9961 12.9799 36.9536 15.3651 38.1095 18.1557C39.2654 20.9463 39.5678 24.0169 38.9786 26.9794C38.3893 29.9419 36.9348 32.6631 34.7989 34.7989C32.6631 36.9348 29.9419 38.3893 26.9794 38.9786C24.0169 39.5678 20.9463 39.2654 18.1557 38.1095C15.3651 36.9536 12.9799 34.9961 11.3018 32.4847C9.62369 29.9732 8.728 27.0205 8.728 24C8.71579 21.991 9.10247 19.9996 9.86564 18.1412C10.6288 16.2828 11.7533 14.5944 13.1738 13.1738C14.5944 11.7533 16.2828 10.6288 18.1412 9.86564C19.9996 9.10247 21.991 8.71579 24 8.728ZM24 17.456C22.7057 17.456 21.4405 17.8398 20.3643 18.5589C19.2882 19.2779 18.4494 20.3 17.9541 21.4957C17.4588 22.6915 17.3292 24.0073 17.5817 25.2767C17.8342 26.5461 18.4575 27.7121 19.3727 28.6273C20.2879 29.5425 21.4539 30.1658 22.7233 30.4183C23.9927 30.6708 25.3085 30.5412 26.5043 30.0459C27.7 29.5506 28.7221 28.7118 29.4411 27.6357C30.1602 26.5595 30.544 25.2943 30.544 24C30.544 22.2644 29.8545 20.5999 28.6273 19.3727C27.4001 18.1455 25.7356 17.456 24 17.456Z" fill="white"/>
</svg>
