<svg width="32" height="32" viewBox="0 0 32 32" fill="none" xmlns="http://www.w3.org/2000/svg">
<path d="M5.06501 30.3439H5.00249C4.67349 30.3475 4.34968 30.27 4.0569 30.1199C3.76412 29.9698 3.51148 29.7509 3.32231 29.4817C3.05563 29.2849 2.84878 29.0186 2.72318 28.7119C2.59758 28.4052 2.55912 28.0702 2.61117 27.7429C2.74816 27.0946 3.08637 26.5071 3.5802 26.0653L19.1368 11.0153C18.7423 10.1811 18.536 9.2707 18.5299 8.34788C18.5615 6.58999 19.2878 4.91671 20.5513 3.69417C21.8149 2.47162 23.5109 1.79872 25.2689 1.82513C25.6653 1.77719 26.0683 1.86436 26.4098 2.07129C26.5432 2.14332 26.6985 2.2316 26.9412 2.3383L26.9126 3.48968L23.573 6.71719L26.9412 9.97466L27.4049 9.53442L30.3381 6.69375H31.6223C31.8694 7.20923 31.9977 7.77361 32 8.34527C31.9691 10.1025 31.2437 11.7751 29.9812 12.9977C28.7186 14.2202 27.0209 14.8924 25.2636 14.8667C24.3107 14.8666 23.3681 14.6675 22.4972 14.2806L21.1635 15.5714V15.5583L15.3936 21.1863L6.6436 29.6341C6.20819 30.0357 5.65445 30.2851 5.06501 30.3439ZM25.7039 30.1225C24.8556 30.0089 24.0704 29.6124 23.4741 28.9985L17.0295 22.7649L21.6402 18.2818L28.2437 24.6834C28.7578 25.1431 29.0699 25.7871 29.1111 26.4756C29.1111 26.5956 29.1111 26.7051 29.1111 26.8038V26.8976C29.1111 27.5805 29.1104 27.8627 28.1421 28.8096L28.0379 28.9112L27.8738 29.0792C26.9802 29.9541 26.8437 30.0846 25.7794 30.1459L25.7039 30.1225ZM10.6005 14.3835L6.04186 9.96945H3.37441C3.02497 9.66802 0.00883963 7.01383 0.00883963 5.0826C-0.0254546 4.63628 0.0404742 4.18833 0.199 3.76971C0.357525 3.35109 0.604452 2.97166 0.925775 2.66001C1.2471 2.34836 1.63305 2.11145 2.05632 1.9658C2.47959 1.82014 2.92935 1.76939 3.37441 1.81731C5.46569 1.81731 8.40359 5.05059 8.44361 5.0826V7.66148L12.9996 12.0794L10.6239 14.3809L10.6005 14.3835Z" fill="#FF6B00"/>
</svg>
