<svg width="32" height="32" viewBox="0 0 32 32" fill="none" xmlns="http://www.w3.org/2000/svg">
<g clip-path="url(#clip0_2324_5535)">
<path d="M0 16.0003C0 12.8358 0.937213 9.74213 2.69532 7.11094C4.45343 4.47974 6.95401 2.4287 9.87763 1.21769C12.8013 0.00668369 16.0187 -0.309835 19.1225 0.30753C22.2262 0.924896 25.0749 2.4488 27.3126 4.68645C29.5502 6.9241 31.0754 9.77548 31.6928 12.8792C32.3102 15.9829 31.9923 19.1991 30.7813 22.1227C29.5703 25.0463 27.5193 27.5456 24.8881 29.3037C22.2569 31.0618 19.1646 32.0003 16 32.0003C11.7581 31.9954 7.69224 30.3084 4.69272 27.3089C1.6932 24.3094 0.00494031 20.2422 0 16.0003ZM3.20053 16.0003C3.20294 18.6544 4.02893 21.2422 5.56512 23.4066C7.10131 25.5709 9.27144 27.2043 11.7761 28.0824C10.5975 26.1261 9.99869 23.876 10.0521 21.5928C10.1054 17.4941 5.98781 14.2559 3.6198 12.7386C3.34097 13.8032 3.19965 14.8997 3.20053 16.0003ZM14.6329 9.8297C8.49951 12.299 9.70497 17.2298 12.6276 18.2138C15.5503 19.1978 20.6587 19.2797 22.5574 21.9144C23.3913 23.1515 23.8437 24.6074 23.8568 26.0993C25.6963 24.666 27.1089 22.7575 27.9428 20.5797C28.7767 18.402 29.0004 16.0378 28.5886 13.7425C28.1769 11.4471 27.1457 9.30708 25.6068 7.55495C24.068 5.80282 22.0798 4.50428 19.8568 3.79973C19.6542 5.19879 19.0531 6.51104 18.1277 7.57969C17.2022 8.64834 15.9886 9.42918 14.6329 9.8297Z" fill="#9A75AF"/>
</g>
<defs>
<clipPath id="clip0_2324_5535">
<rect width="32" height="32" fill="white"/>
</clipPath>
</defs>
</svg>
