<svg xmlns="http://www.w3.org/2000/svg" width="31.999" height="23.772" viewBox="0 0 31.999 23.772"><defs><style>.a,.b,.c,.h{fill:none;}.a,.b,.c{stroke:#fff;}.a{stroke-width:1.4px;}.a,.b,.c,.f{opacity:0.8;}.b{stroke-width:1.5px;}.c{stroke-width:1.2px;}.d,.f{fill:#006466;}.e{fill:#186785;}.g{stroke:none;}</style></defs><g class="a" transform="translate(8.229)"><circle class="g" cx="4.571" cy="4.571" r="4.571"/><circle class="h" cx="4.571" cy="4.571" r="3.871"/></g><g class="b" transform="translate(19.199 10.972)"><circle class="g" cx="6.4" cy="6.4" r="6.4"/><circle class="h" cx="6.4" cy="6.4" r="5.65"/></g><g class="c" transform="translate(21.943 2.743)"><circle class="g" cx="2.286" cy="2.286" r="2.286"/><circle class="h" cx="2.286" cy="2.286" r="1.686"/></g><g class="a" transform="translate(5.486 13.714)"><circle class="g" cx="4.571" cy="4.571" r="4.571"/><circle class="h" cx="4.571" cy="4.571" r="3.871"/></g><rect class="d" width="3.657" height="0.914" transform="translate(2.742 2.743)"/><rect class="d" width="1.829" height="0.914" transform="translate(4.572 5.485)"/><rect class="e" width="14.629" height="0.914" transform="translate(4.572 10.972)"/><rect class="e" width="2.743" height="0.914" transform="translate(0 10.972)"/><rect class="e" width="1.829" height="0.914" transform="translate(3.656 13.714)"/><rect class="e" width="3.657" height="0.914" transform="translate(14.629 13.714)"/><rect class="d" width="1.829" height="0.914" transform="translate(16 16.457)"/><circle class="f" cx="1.743" cy="1.743" r="1.743" transform="translate(23.857 15.629)"/></svg>