<?xml version="1.0" encoding="utf-8"?>
<!-- Generator: Adobe Illustrator 24.0.2, SVG Export Plug-In . SVG Version: 6.00 Build 0)  -->
<svg version="1.1" id="Layer_1" xmlns="http://www.w3.org/2000/svg" xmlns:xlink="http://www.w3.org/1999/xlink" x="0px" y="0px"
	 viewBox="0 0 2098 1152" style="enable-background:new 0 0 2098 1152;" xml:space="preserve">
<style type="text/css">
	.st0{fill:url(#SVGID_1_);}
	.st1{fill:#0F0D0F;}
	.st2{fill:#141114;}
	.st3{opacity:0.7;fill:#141114;enable-background:new    ;}
	.st4{opacity:0.2;fill:#316AA4;enable-background:new    ;}
	.st5{opacity:0.2;fill:#006466;enable-background:new    ;}
	.st6{opacity:0.1;}
	.st7{fill:#FFFFFF;}
</style>
<g transform="translate(89.088)">
	
		<linearGradient id="SVGID_1_" gradientUnits="userSpaceOnUse" x1="0.3161" y1="1116.0453" x2="0.3897" y2="1115.3031" gradientTransform="matrix(1920 0 0 -782 257.9543 872748)">
		<stop  offset="0" style="stop-color:#0A090A"/>
		<stop  offset="1" style="stop-color:#1D1A1F"/>
	</linearGradient>
	<rect x="-89.1" class="st0" width="2098.2" height="782"/>
	<g transform="translate(-945 221)">
		<path class="st1" d="M855.9,531.8c0,0,928.9-230.7,2098,0c0,6.9,0,399.2,0,399.2h-2098V531.8z"/>
		<path class="st2" d="M855.9,517.2c0,0,108.8-31.6,140.8-32.5s47.4-3.4,47.4-3.4s25-21.5,26.6-28.4c0.4-0.3,75.3-13,125.4-17.5
			c-0.2-0.4,24.6-9.9,32.5-16.9c6.8,0.3,13.6-1,19.8-3.8c0.7-0.4,5.7,9.5,18.7,15.1s41.9,17.1,49.7,18s20.3,2.9,25.3,3
			s13.3-3,13.3-3l2.5,3c0,0,4.3-3.2,6.1-3s7,4.8,12.3,4.8s32.1,2.3,44.3-11.4c-0.1-0.4,10-2.2,13-1s15.2,10.7,25.2,10.6
			s34.2,3.1,42.9-2c0.6-0.3-2.1,6.4-1.8,8.5c-0.2-0.2-30,5.2-49.2,3.1s-37.2-3.3-47.1-1.5c0,0,6.5,1.3,8.8,4s-32.8,5.7-48.5,6.4
			s-75.3,14.6-102.6,27.1c0.1-0.1,9.5,3.4,41.1,1.9s41.1,1.8,42,3.8s-15,6.7-38,8s-175,28-230.6,45.6c1.2-1.2-14.6-8.5-17.3-13.7
			c0-0.6-176.8,45.5-202.6,63.4C855.9,604.6,855.9,517.2,855.9,517.2z"/>
		<path class="st2" d="M1983.6,444.2c0,0,255.2-2.1,339.9-24.6c0.5-1.5,78.5,12.8,92.3,24.6c1.1-0.5,35.5-1,45.7-9.2
			c1-1,2.5-11.3,0-15.4c0.5-1,34.3,8.2,45.6,15.4s59.5,4.2,59.5,4.2s36.8,11.8,40.5,14.8c1.1,0,134.3-6.2,156.9-9.8
			c-1-1,73.4,50.3,115.9,67.2s72.8,28.2,72.8,28.2v30.8c0,0-262-62.5-386.2-82.5c-1.1-1.1-155.4,5.7-208.2,0
			c-12.9-5.8-26.8-9.1-41-9.8c-22.6-1,15.8-13.8,15.8-13.8s-48.2-6.2-87.7-3.6s-206.6,1.6-236.4-6.6S1983.6,444.2,1983.6,444.2z"/>
		<path class="st3" d="M1246.9,597.2c0,0,1.9-26.4,24.2-32.2s29.8,23,29.8,23S1279.3,599.4,1246.9,597.2z"/>
		<path class="st3" d="M1201.3,573.4c0,0,2.3-22.7,16.1-26.6c0.6,0.2,17.2,19,25,21.2C1241.8,567.6,1219.8,574.1,1201.3,573.4z"/>
		<path class="st3" d="M2254.9,584.4l23.1-30l194.5-37.3c0,0,34,9.4,36.4,12.7c-0.6-0.9,7.3,24,58.6,22.2c-0.3,0,9.7,0.3,7.6-14.9
			c0-0.9,46.7-23.3,56.1-27c0.3,0.3,4.6,4.5,4.6,4.5l7.6-2.1c0,0,7.8,9.7,11.8,10.6c0.3,0.6,19.8,0,19.8,0s-7,4-7.6,6.7
			c-0.6-0.6,5.2,7,11.2,7.3c0-0.3,4.8,1.9,7,3.1l7.3-3.1c0,0,4.5,6.1,8.8,7.3c0,0,23.4,7.9,34.9,4.2c1.2-0.6,19.4,3.7,35.8,3.4
			c0.9-0.3,10.6,8.1,21.8,8.1c0-0.9-4.8,2.1-4.6,4c0.3-0.9,4.6,4.2,4.6,4.2s-11.2-2.1-29.1,0c0.6-0.9-77.1-7.9-90.1-4.2
			c0.9,0.3,7.3-4,7.3-4s-62.5-2.8-88.3,0s-56.8-9.3-62.2-8.1c1.5,0.3-4.8,5.4,13.1,12.1c0.3,0.6-14.9,2.7-22.2,0s-14.6-3.3-13.7,0
			s2.7,10.7,13.7,10.7s29.1-3,31.9,0s21,5.4,34.9,4.8s17.9,4.9,17.9,4.9h16.4c4.6,0,12.2,3,12.2,3l-12.2,4.9c0,0-10-4.3-26.7,0
			c-1-0.6-42.5-14-70.4-4.9c0.6-0.9-21.6,14.3-28.9,12.5c0.6,0.6-24.9-21.6-46.7-7.6c-0.3,1.2-96.9,3.9-110.8,9.7
			c-0.3,0-32.1-14.9-31.9-14.6s-7.5-3.8-41.2,4.9s-27.8,2.3-32.7,3.9S2254.9,584.4,2254.9,584.4z"/>
	</g>
	<circle class="st4" cx="607.4" cy="120.8" r="23"/>
	<circle class="st5" cx="1271.9" cy="302.1" r="7.8"/>
	<circle class="st4" cx="1024.9" cy="346.3" r="14.5"/>
	<g transform="translate(17 -676)" class="st6">
		<circle class="st7" cx="171" cy="898" r="2"/>
		<circle class="st7" cx="213.5" cy="1011.5" r="1.5"/>
		<circle class="st7" cx="84" cy="1204" r="1"/>
		<circle class="st7" cx="734.5" cy="1143.5" r="1.5"/>
		<circle class="st7" cx="1170" cy="1279" r="2"/>
		<circle class="st7" cx="1221" cy="1241" r="1"/>
		<circle class="st7" cx="1801.5" cy="1043.5" r="1.5"/>
		<circle class="st7" cx="1588" cy="1011" r="1"/>
		<circle class="st7" cx="1583" cy="1271" r="2"/>
	</g>
</g>
</svg>
