<svg xmlns="http://www.w3.org/2000/svg" width="28.643" height="36.271" viewBox="0 0 28.643 36.271"><defs><style>.a{fill:#fff;}.a,.d{opacity:0.8;}.b,.c,.d,.f{fill:#ff564f;}.b{opacity:0.5;}.e,.f{stroke:none;}</style></defs><path class="a" d="M21729.727,16922.289h-.1a4.462,4.462,0,0,1-2.637-.727,4.193,4.193,0,0,1-1.344-1.734,1.927,1.927,0,0,0-.9-1.037,11.435,11.435,0,0,0-1.75-.668l-.182-.059a1.948,1.948,0,0,1-.977-.758,2.527,2.527,0,0,1-.338-.949c-.057-.322-.086-.625-.117-.957-.021-.256-.043-.484-.078-.7a1.727,1.727,0,0,0-.5-1.09,3.18,3.18,0,0,0-1.957-.59.9.9,0,0,1-.842-.895,6.058,6.058,0,0,1,4.17-5.822c.209-.066.418-.379.643-.955.09-.225.18-.484.275-.76l.043-.123c.162-.479.348-1.02.582-1.578a6.5,6.5,0,0,1,1.9-2.686,6.373,6.373,0,0,1,4.031-1.205,6.157,6.157,0,0,1,3.979,1.26,6.708,6.708,0,0,1,1.926,2.744c.232.541.418,1.074.582,1.545l.012.035.02.051c.109.314.213.611.314.857a3.028,3.028,0,0,0,.332.672c.086.105.113.109.135.113h.008a5.139,5.139,0,0,1,3.809,2.938,9.943,9.943,0,0,1,.531,3.869l0,.135a.882.882,0,0,1-.283.656.9.9,0,0,1-.418.223,10.782,10.782,0,0,0-1.225-1.717l.006,0h.016l-.006-.182,0-.092v-.006a6.54,6.54,0,0,0-.27-2.182,3.029,3.029,0,0,0-2.549-1.877,2.145,2.145,0,0,1-1.174-.785,3.691,3.691,0,0,1-.488-.844,7.818,7.818,0,0,0,.15-1.012c0-.018,0-.021,0-.021l0-1.484-.951.3c-.062-.164-.131-.336-.2-.488a5.081,5.081,0,0,0-1.4-2.041,4.282,4.282,0,0,0-2.854-.873,4.505,4.505,0,0,0-2.908.84,4.561,4.561,0,0,0-1.375,1.932c-.074.178-.146.371-.23.609l-.883-.275v1.484s0,0,0,.021a7.578,7.578,0,0,0,.127.906,2.9,2.9,0,0,1-1.619,1.68,4.028,4.028,0,0,0-2.881,3.416,4.228,4.228,0,0,1,2.129.895,3.479,3.479,0,0,1,1.059,2.1c.061.355.094.691.123.988l.008.061,0,.037c.023.225.041.416.068.563a1.19,1.19,0,0,0,.08.3l.006,0a.081.081,0,0,1,.023.008l.49.162a9.182,9.182,0,0,1,1.779.705,4.082,4.082,0,0,1,1.621,1.844,2.391,2.391,0,0,0,.754,1.037,2.648,2.648,0,0,0,1.594.393h.057a8.144,8.144,0,0,0,.514,1.766C21730.045,16922.275,21729.881,16922.289,21729.727,16922.289Z" transform="translate(-21712.648 -16887.293)"/><g class="b" transform="translate(3.535 9.193) rotate(45)"><path class="e" d="M 2.501099824905396 4.500400066375732 C 2.362920045852661 4.500400066375732 2.250499963760376 4.387979984283447 2.250499963760376 4.249800205230713 L 2.250499963760376 3.249900102615356 L 2.250499963760376 2.749900102615356 L 1.750499963760376 2.749900102615356 L 0.7505999207496643 2.749900102615356 C 0.6129099130630493 2.749900102615356 0.5008999109268188 2.637890100479126 0.5008999109268188 2.500200033187866 C 0.5008999109268188 2.362020015716553 0.6129099130630493 2.249599933624268 0.7505999207496643 2.249599933624268 L 1.750499963760376 2.249599933624268 L 2.250499963760376 2.249599933624268 L 2.250499963760376 1.749600052833557 L 2.250499963760376 0.7497000098228455 C 2.250499963760376 0.6120100617408752 2.362920045852661 0.5000000596046448 2.501099824905396 0.5000000596046448 C 2.638789892196655 0.5000000596046448 2.750799894332886 0.6120100617408752 2.750799894332886 0.7497000098228455 L 2.750799894332886 1.749600052833557 L 2.750799894332886 2.249599933624268 L 3.250799894332886 2.249599933624268 L 4.250699996948242 2.249599933624268 C 4.388390064239502 2.249599933624268 4.500400066375732 2.362020015716553 4.500400066375732 2.500200033187866 C 4.500400066375732 2.637890100479126 4.388390064239502 2.749900102615356 4.250699996948242 2.749900102615356 L 3.250799894332886 2.749900102615356 L 2.750799894332886 2.749900102615356 L 2.750799894332886 3.249900102615356 L 2.750799894332886 4.249800205230713 C 2.750799894332886 4.387979984283447 2.638789892196655 4.500400066375732 2.501099824905396 4.500400066375732 Z"/><path class="f" d="M 2.501099824905396 5.000400066375732 C 2.086199998855591 5.000400066375732 1.750499963760376 4.663800239562988 1.750499963760376 4.249800205230713 L 1.750499963760376 3.249900102615356 L 0.7505999207496643 3.249900102615356 C 0.3365999162197113 3.249900102615356 0.0008999290294013917 2.914200067520142 0.0008999290294013917 2.500200033187866 C 0.0008999290294013917 2.086199998855591 0.3365999162197113 1.749600052833557 0.7505999207496643 1.749600052833557 L 1.750499963760376 1.749600052833557 L 1.750499963760376 0.7497000098228455 C 1.750499963760376 0.3357000350952148 2.086199998855591 3.318786667705353e-08 2.501099824905396 3.318786667705353e-08 C 2.915099859237671 3.318786667705353e-08 3.250799894332886 0.3357000350952148 3.250799894332886 0.7497000098228455 L 3.250799894332886 1.749600052833557 L 4.250699996948242 1.749600052833557 C 4.664700031280518 1.749600052833557 5.000400066375732 2.086199998855591 5.000400066375732 2.500200033187866 C 5.000400066375732 2.914200067520142 4.664700031280518 3.249900102615356 4.250699996948242 3.249900102615356 L 3.250799894332886 3.249900102615356 L 3.250799894332886 4.249800205230713 C 3.250799894332886 4.663800239562988 2.915099859237671 5.000400066375732 2.501099824905396 5.000400066375732 Z"/></g><g class="b" transform="translate(15.813 -0.001) rotate(45)"><path class="e" d="M 3.00059986114502 5.50029993057251 C 2.78003978729248 5.50029993057251 2.600599765777588 5.320859909057617 2.600599765777588 5.100299835205078 L 2.600599765777588 3.900599956512451 L 2.600599765777588 3.400599956512451 L 2.100599765777588 3.400599956512451 L 0.9008998870849609 3.400599956512451 C 0.6803398728370667 3.400599956512451 0.5008998513221741 3.221159934997559 0.5008998513221741 3.00059986114502 C 0.5008998513221741 2.78003978729248 0.6803398728370667 2.600599765777588 0.9008998870849609 2.600599765777588 L 2.100599765777588 2.600599765777588 L 2.600599765777588 2.600599765777588 L 2.600599765777588 2.100599765777588 L 2.600599765777588 0.9008998870849609 C 2.600599765777588 0.6803398728370667 2.78003978729248 0.5008998513221741 3.00059986114502 0.5008998513221741 C 3.221159934997559 0.5008998513221741 3.400599956512451 0.6803398728370667 3.400599956512451 0.9008998870849609 L 3.400599956512451 2.100599765777588 L 3.400599956512451 2.600599765777588 L 3.900599956512451 2.600599765777588 L 5.100299835205078 2.600599765777588 C 5.320859909057617 2.600599765777588 5.50029993057251 2.78003978729248 5.50029993057251 3.00059986114502 C 5.50029993057251 3.221159934997559 5.320859909057617 3.400599956512451 5.100299835205078 3.400599956512451 L 3.900599956512451 3.400599956512451 L 3.400599956512451 3.400599956512451 L 3.400599956512451 3.900599956512451 L 3.400599956512451 5.100299835205078 C 3.400599956512451 5.320859909057617 3.221159934997559 5.50029993057251 3.00059986114502 5.50029993057251 Z"/><path class="f" d="M 3.00059986114502 6.00029993057251 C 2.502899885177612 6.00029993057251 2.100599765777588 5.597099781036377 2.100599765777588 5.100299835205078 L 2.100599765777588 3.900599956512451 L 0.9008998870849609 3.900599956512451 C 0.4031998515129089 3.900599956512451 0.0008998611592687666 3.497399806976318 0.0008998611592687666 3.00059986114502 C 0.0008998611592687666 2.503799915313721 0.4031998515129089 2.100599765777588 0.9008998870849609 2.100599765777588 L 2.100599765777588 2.100599765777588 L 2.100599765777588 0.9008998870849609 C 2.100599765777588 0.4040998518466949 2.502899885177612 0.0008998611592687666 3.00059986114502 0.0008998611592687666 C 3.497399806976318 0.0008998611592687666 3.900599956512451 0.4040998518466949 3.900599956512451 0.9008998870849609 L 3.900599956512451 2.100599765777588 L 5.100299835205078 2.100599765777588 C 5.597099781036377 2.100599765777588 6.00029993057251 2.503799915313721 6.00029993057251 3.00059986114502 C 6.00029993057251 3.497399806976318 5.597099781036377 3.900599956512451 5.100299835205078 3.900599956512451 L 3.900599956512451 3.900599956512451 L 3.900599956512451 5.100299835205078 C 3.900599956512451 5.597099781036377 3.497399806976318 6.00029993057251 3.00059986114502 6.00029993057251 Z"/></g><g class="b" transform="translate(3.533 28.549) rotate(45)"><path class="e" d="M1.051,2.549v-.6h-.6a.45.45,0,1,1,0-.9h.6v-.6a.45.45,0,1,1,.9,0v.6h.6a.45.45,0,1,1,0,.9h-.6v.6a.45.45,0,1,1-.9,0Z"/><path class="f" d="M 1.501200079917908 2.998800039291382 C 1.252800107002258 2.998800039291382 1.051200032234192 2.797199964523315 1.051200032234192 2.548799991607666 L 1.051200032234192 1.948500037193298 L 0.4509000778198242 1.948500037193298 C 0.2025000602006912 1.948500037193298 0.0009000648278743029 1.746899962425232 0.0009000648278743029 1.498499989509583 C 0.0009000648278743029 1.250100016593933 0.2025000602006912 1.048500061035156 0.4509000778198242 1.048500061035156 L 1.051200032234192 1.048500061035156 L 1.051200032234192 0.4491000175476074 C 1.051200032234192 0.2006999999284744 1.252800107002258 -0.000899995444342494 1.501200079917908 -0.000899995444342494 C 1.749600052833557 -0.000899995444342494 1.951200008392334 0.2006999999284744 1.951200008392334 0.4491000175476074 L 1.951200008392334 1.048500061035156 L 2.550600051879883 1.048500061035156 C 2.799900054931641 1.048500061035156 3.000600099563599 1.250100016593933 3.000600099563599 1.498499989509583 C 3.000600099563599 1.746899962425232 2.799900054931641 1.948500037193298 2.550600051879883 1.948500037193298 L 1.951200008392334 1.948500037193298 L 1.951200008392334 2.548799991607666 C 1.951200008392334 2.797199964523315 1.749600052833557 2.998800039291382 1.501200079917908 2.998800039291382 Z"/></g><path class="c" d="M5,8c0,1.656,1.085,2.286,1.714,2.286A1.661,1.661,0,0,0,8.429,9.143Zm8,0L9.571,9.143a1.661,1.661,0,0,0,1.714,1.143C11.915,10.286,13,9.656,13,8Z" transform="translate(8.035 10.284)"/><path class="d" d="M9.286,4.728a.836.836,0,0,0-.731.992A13.773,13.773,0,0,1,8.79,9.19a3.016,3.016,0,0,1-.47,1.54c-.147.17-.052.153-.287.052a3.354,3.354,0,0,1-1.2-1.226.83.83,0,0,0-.665-.375.842.842,0,0,0-.692.323c-1.621,2.185-1.6,4.081-.992,5.3a4.355,4.355,0,0,0,1.7,1.775.835.835,0,1,0,.783-1.461,2.685,2.685,0,0,1-.992-1.044,2.988,2.988,0,0,1,.313-2.505,3.487,3.487,0,0,0,1.1.757,2,2,0,0,0,2.218-.5,4.211,4.211,0,0,0,.835-2.479c.039-.424-.088-1.063-.1-1.566a7.628,7.628,0,0,1,1.618,2.74A5.3,5.3,0,0,1,10.9,15.349a.84.84,0,0,0,1.357.992,7.168,7.168,0,0,0,1.3-6.289A10.58,10.58,0,0,0,9.912,4.936a.825.825,0,0,0-.548-.209Z" transform="translate(14.051 19.544)"/></svg>