<svg xmlns="http://www.w3.org/2000/svg" xmlns:xlink="http://www.w3.org/1999/xlink" width="921" height="129" viewBox="0 0 921 129"><defs><style>.a{fill:#fff;}.b{clip-path:url(#a);}.c{fill:#0a090a;}</style><clipPath id="a"><rect class="a" width="921" height="129" transform="translate(-73)"/></clipPath></defs><g class="b" transform="translate(73)"><g transform="translate(110.034 -9.006)"><path class="c" d="M-14682.292-16708.061l14.842-6.549s-1.594,6.375,0,7.553,20.931,15.43,22.109,19.512,2.335,10.477,2.335,10.477l4.213-10.477s3.514-1.877,4.955-1.156a5.7,5.7,0,0,0,5.085,0c1.593-.875,7.878,4.779,8.163,7.551s25.732,15.736,28.94,23.289,15.562,18.027,17.024,21.236.873,11.785,4.518,16.15,22.415,12.811,22.415,12.811-16.872-9.164-19.644-23.133c-.152-.285,7.4,0,7.4,0s-1.441-3.363-6.242-5.828-16.021-9.014-16.741-21.236c.153-.154,7.88-.588,12.812,2.9.284,0-1.9-2.9-12.812-6.832s-25.6-15.277-25.6-15.277a147.7,147.7,0,0,1,20.669-3.057c9.887-.59,18.2-8.01,25.754-6.264s16,9.475,35.205,8.162,40.008-5.258,49.327-4.387,32.521,17.244,32.521,17.244-14.121,2.029-16.3,5.238c-.284.152,19.468,18.334,26.474,19.359s-23.549,9.975-23.549,9.975-22.48-11.066-53.627-8.883-35.642,1.9-35.642,1.9-.894,2.924,7.553,4.518,27.086.283,32.454,2.467a28.292,28.292,0,0,0,2.184,2.617s-3.777,2.488-12.66,3.492-23.725,4.648-26.344,6.549-2.029,2.443,2.336,5.369,9.756,16.893-5.522,12.092-19.817-9.889-26.933-10.762-27.2,1.025-44.372-5.238a44.029,44.029,0,0,1,18.181-8.01c-.436.438-4.234-3.186-17.023-2.465s-43.5,1.309-52.383-3.645-12.069-8.883-12.069-8.883Z" transform="translate(14610.292 16729.557)"/><path class="c" d="M0,71.515a40.107,40.107,0,0,1,7.857,0c4.081.436,7.006-1.616,9.756-1.9s11.786,0,11.786,0l6.395-1.158s7.989-.721,10.04,0,8.62-3.078,9.472-3.209,4.933-2.051,10.171-1.309,11.349-1.593,11.349-1.593l18.05,1.593s7.4-4.518,8.862-6.547c.153-.436,12.549.72,14.863,2.183.131-.131,14.667-5.828,17.155-8.884s7.29,0,7.29,0,8.294-7.136,11.633-8.729,5.238-1.157,5.238-1.157,12.091,7.7,14.558,11.786,11.567-4.8,13.314-5.522c0-.153,8.272,3.623,8.272,3.623s11.808-4.343,13.838-3.623c.589.284,6.111,3.623,6.111,3.623s9.167-1.746,13.532-1.592c.153.152,7.574-2.641,9.167-4.081.436-.568,2.03-3.055,2.03-3.055h3.775l3.514-1.157s10.018-1.31,11.481,0c0-.284,10.5-4.213,12.964-3.055.284-.284,3.491.563,3.491.563s4.759-1.908,5.623-2.245,4.838-.282,3.447,1.682-1.252,4.467-7.481,6.593-13.978,7.808-15.368,9.934c-.2,0,11.127-8.672,21.925-9.934-.139.07,7.48,1.694,7.749,4.756.069-.117.725,1.521-3.447,3.32s-11.126,7.432-10.858,8.484.656,2.582,2.911.923,5.9-7.749,10.073-8.345,7.074-2.315,8.206-1.719c-.069-.07-.665-2.962-5.365-4.695s-3.5-9.331-2.842-10.136-.069-3.458-2.125-3.915-2.255-1.321-2.255-1.321l5.7.795,3.507.526s11.057-1.648,13.312-1.321,6.755.795,6.755.795l14.5,5.822-7.809-9.1s16.68,1.589,19.332,3.278c0-.039,8.544-.795,8.544-.795V29.611s12.328.655,13.252,1.52a2.44,2.44,0,0,0,2.116.567s3.248-1.521,2.98-3.378a52.279,52.279,0,0,1,0-6.626L366.7,18.315V16.2l-2.514-2.523s4.759-1,5.424,0c.338.268,11.723-5.822,13.183-6.02.2.07,9.408-2.593,10.2-2.454a1.8,1.8,0,0,1,0,2.454c-.993,1.391-5.226,7.876-5.891,10.659,0-.267,1.381-.864,1.381-.864S396.965,7.387,397.76,4.8c-.069-.128,7.948-1.062,7.948-1.062s9.149-4.173,10.8-3.706,9,2.325,9,2.325a39.853,39.853,0,0,0,4.371.923c.795,0,3.646,1.45,3.646,3.437s-8.017,11.593-8.017,11.593l-9,3.378-8.712,15.24-8.163,6.426L395.484,60.9s-22.548,7.991-30.11,7.554-6.121-3.492-11.359-3.209-14.252,6.265-14.252,6.265-3.214-1.9-9.824-1.9-20.863-.285-27.563-1.158-10.457-1.158-16.218,0-22.5,6.112-39.962,4.365a219.35,219.35,0,0,0-27.937-1.309s-26.759.284-28.941,1.309-27.435,1.528-27.435,1.528l-11.939-1.528L139.9,74.351s-3.035-2.771-10.608,0c.284-.305-34.659-5.391-49.348-1.528-.131-.371-3.121-1.309-3.121-1.309l-5.3,1.309s-3.645.524-4.365,1.528c-.153-.152-3.776-1.528-3.776-1.528s-26.8-2.1-32.171,0c-.284-.218-13.6,0-13.6,0s-5.326,2.269-8.665,1.528A90.1,90.1,0,0,1,0,71.515Z" transform="matrix(0.998, 0.07, -0.07, 0.998, 196.472, 0)"/></g></g></svg>