<svg xmlns="http://www.w3.org/2000/svg" width="36" height="36.001" viewBox="0 0 36 36.001"><defs><style>.a,.b{fill:#003233;}.a{opacity:0.2;}.c{fill:#fff;font-size:14px;font-family:Poppins-Medium, Poppins;font-weight:500;letter-spacing:-0.024em;}</style></defs><g transform="translate(-421 -198)"><path class="a" d="M6519.37,2623.273a2,2,0,0,1-1.691-.934l-3.679-3.624,2.625-2.677.746.176v-22.941a2,2,0,0,1,2-2h22.29l3.273-3.272,3.758,3.771a1.992,1.992,0,0,1,.186.186l.014.014h0a1.991,1.991,0,0,1,.481,1.3v28a2,2,0,0,1-2,2Z" transform="translate(-6092.37 -2389.272)"/><rect class="b" width="32" height="32" rx="2" transform="translate(421 198)"/><text class="c" transform="translate(437 219)"><tspan x="-4.039" y="0">2</tspan></text></g></svg>