<svg xmlns="http://www.w3.org/2000/svg" width="15.554" height="14" viewBox="0 0 15.554 14"><defs><style>.a{fill:#535261;opacity:0.5;}</style></defs><path class="a" d="M11.425,2l-3.3,0a1.557,1.557,0,0,0-1.145.5L6.016,3.555H3.555A1.56,1.56,0,0,0,2,5.11v9.332A1.56,1.56,0,0,0,3.555,16H16a1.56,1.56,0,0,0,1.555-1.555V5.11A1.56,1.56,0,0,0,16,3.555H13.542L12.572,2.5A1.559,1.559,0,0,0,11.425,2ZM9.777,5.888A3.888,3.888,0,1,1,5.888,9.777,3.851,3.851,0,0,1,9.777,5.888Zm0,1.555A2.333,2.333,0,1,0,12.11,9.777,2.333,2.333,0,0,0,9.777,7.443Z" transform="translate(-2 -1.998)"/></svg>