<svg xmlns="http://www.w3.org/2000/svg" width="20.508" height="22" viewBox="0 0 20.508 22"><defs><style>.a{fill:#535261;stroke:#535261;stroke-width:0.5px;}.b{fill:#7a7580;}</style></defs><g transform="translate(0.254 0.25)"><path class="a" d="M19698.982,16920.5a.87.87,0,0,1-.184-.021.756.756,0,0,1-.529-.525l-.807-2.807-2.939-.924a.749.749,0,0,1-.5-.535.761.761,0,0,1,.2-.707l2.73-2.736a8.5,8.5,0,1,1,14.1,0l2.73,2.736a.751.751,0,0,1,.2.707.732.732,0,0,1-.506.535l-2.934.924-.807,2.807a.762.762,0,0,1-.533.523.733.733,0,0,1-.189.02.77.77,0,0,1-.529-.217l-4.289-4.289c-.035,0-.066,0-.1,0a.787.787,0,0,1-.1.006c-.031,0-.066,0-.1,0l-.033,0c-.021,0-.045,0-.066,0l-.014.016a.207.207,0,0,1-.02.023c-.01.012-.02.023-.031.035l-4.221,4.215A.761.761,0,0,1,19698.982,16920.5Zm5.016-20.3a7.3,7.3,0,1,0,7.3,7.3A7.308,7.308,0,0,0,19704,16900.2Z" transform="translate(-19694 -16899.002)"/><path class="b" d="M8.154,10.843a.282.282,0,0,1-.133-.033L6.5,9.987l-1.523.823a.279.279,0,0,1-.407-.2l-.307-1.7L2.668,8.231a.279.279,0,0,1-.1-.441l1.141-1.3L3.245,4.821a.279.279,0,0,1,.282-.353l1.73.08,1.016-1.4a.289.289,0,0,1,.452,0l1.016,1.4,1.73-.08a.282.282,0,0,1,.231.1.279.279,0,0,1,.051.249L9.288,6.489l1.141,1.3a.279.279,0,0,1-.1.441L8.735,8.91l-.307,1.7a.28.28,0,0,1-.154.2A.283.283,0,0,1,8.154,10.843Z" transform="translate(3.502 1.562)"/></g></svg>