<svg xmlns="http://www.w3.org/2000/svg" width="33.013" height="28" viewBox="0 0 33.013 28"><defs><style>.a,.c{opacity:0.8;}.b{fill:none;stroke:#ffa054;}.c{fill:#fff;}</style></defs><g class="a" transform="translate(-1173.986 -1569)"><g transform="translate(1 1)"><path class="b" d="M-2225.012-9312.443h2.312" transform="translate(3405.987 10885.871)"/><path class="b" d="M-2220.053-9312.443h1.407" transform="translate(3404.979 10885.871)"/><path class="b" d="M-2216.547-9312.443h5.433" transform="translate(3404.267 10885.871)"/><path class="b" d="M-2221.24-9309.644h3.775" transform="translate(3402.221 10885.303)"/><path class="b" d="M-2214.951-9309.644h1.422" transform="translate(3400.943 10885.303)"/><path class="b" d="M-2211.615-9309.644h2.272" transform="translate(3400.265 10885.303)"/><path class="b" d="M-2220.053-9306.931h3.181" transform="translate(3400.979 10884.751)"/><path class="b" d="M-2214.059-9306.931h5.647" transform="translate(3399.762 10884.751)"/></g><path class="b" d="M-2198.45-9290.269l-2.162-2.162-5.012,5.012" transform="translate(3398.048 10875.806)"/><path class="b" d="M-2205.74-9288.145l-1.629-1.629-3.779,3.779" transform="translate(3399.17 10875.266)"/></g><path class="c" d="M-382.813,10907.217v-3.477h-5.478a.783.783,0,0,1-.783-.783.783.783,0,0,1,.783-.783h5.478v-5.478a.783.783,0,0,1,.772-.794.783.783,0,0,1,.564.228.787.787,0,0,1,.23.566v5.478h3.477a.783.783,0,0,1,.783.783.783.783,0,0,1-.783.783h-3.477v3.477a.783.783,0,0,1-.783.783A.783.783,0,0,1-382.813,10907.217Zm-23.442-1.949-3.452-3.452a1,1,0,0,1,0-1.415,1,1,0,0,1,1.415,0l2.746,2.746,6.852-6.853a1,1,0,0,1,1.415,0,1,1,0,0,1,0,1.413l-7.561,7.561a1.009,1.009,0,0,1-.706.293A1.011,1.011,0,0,1-406.255,10905.268Zm11.7-1.527a.783.783,0,0,1-.783-.783.783.783,0,0,1,.783-.783h3.129a.783.783,0,0,1,.783.783.783.783,0,0,1-.783.783Zm-12.434-9.437v-4.131a.778.778,0,0,1,.769-.791.782.782,0,0,1,.567.228.789.789,0,0,1,.227.563v4.131a.782.782,0,0,1-.78.783A.783.783,0,0,1-406.986,10894.3Zm24.173-.739v-3.129a.783.783,0,0,1,.772-.794.783.783,0,0,1,.564.228.787.787,0,0,1,.23.566v3.129a.783.783,0,0,1-.783.783A.783.783,0,0,1-382.813,10893.564Zm-24.173-6.521v-5.65c0-.433.9-1.394,1.336-1.394h5.708a.782.782,0,0,1,.78.783.782.782,0,0,1-.78.783h-4.421a1.381,1.381,0,0,0-.851.183,1.03,1.03,0,0,0-.208.762v4.533a.782.782,0,0,1-.78.783A.783.783,0,0,1-406.986,10887.044Zm16.434-5.478a.783.783,0,0,1-.783-.783.783.783,0,0,1,.783-.783h3.132a.783.783,0,0,1,.783.783.783.783,0,0,1-.783.783Zm-6.261,0a.783.783,0,0,1-.783-.783.783.783,0,0,1,.783-.783h3.132a.782.782,0,0,1,.78.783.782.782,0,0,1-.78.783Z" transform="translate(410 -10880)"/></svg>