<svg xmlns="http://www.w3.org/2000/svg" width="122" height="102" viewBox="0 0 122 102"><defs><style>.a{fill:#336466;}.b{fill:#5ba688;}.c{fill:#292329;}.d{fill:#fff;}.e{fill:#ffa054;}.e,.g{opacity:0;}.f{fill:#535261;}.h{opacity:0.6;}.i{opacity:0.4;}.j{opacity:0.2;}</style></defs><path class="a" d="M119.963,74.506a21.9,21.9,0,0,0-11.656-30.725c0-.01,0-.02,0-.031A29.78,29.78,0,0,0,49.7,36.322a21.253,21.253,0,0,0-27.774,17.7A16.289,16.289,0,0,0,25.315,86.25c.251,0,.5-.017.746-.031-.006.248-.037.49-.037.739a29.082,29.082,0,0,0,51.689,18.255A17,17,0,0,0,105,101.1a15.574,15.574,0,0,0,14.966-26.594Z" transform="translate(-3.333 -14)"/><path class="b" d="M89.2,67.583h8.677a6.358,6.358,0,0,0,.63-12.686,6.306,6.306,0,0,0,.078-.772,6.352,6.352,0,0,0-11.372-3.916A7.067,7.067,0,1,0,73.348,52.4a4.92,4.92,0,0,0-8.7,2.512,6.307,6.307,0,0,0-.772-.078,6.375,6.375,0,0,0,0,12.75H84.948v.708H89.2Z" transform="translate(17.042 -1.708)"/><path class="c" d="M80.375,43a7.8,7.8,0,0,0-7.792,7.792v.067a5.572,5.572,0,0,0-2.833-.775,5.664,5.664,0,0,0-5.465,4.257c-.067,0-.133-.007-.2-.007a7.083,7.083,0,1,0,0,14.167H85.156a.708.708,0,1,0,0-1.417H64.083a5.667,5.667,0,0,1,0-11.333,3.665,3.665,0,0,1,.486.045l.2.027a.61.61,0,0,0,.088.006.712.712,0,0,0,.7-.619,4.211,4.211,0,0,1,7.452-2.151.712.712,0,0,0,.547.258.689.689,0,0,0,.323-.079.708.708,0,0,0,.36-.812A6.3,6.3,0,0,1,74,50.792a6.361,6.361,0,0,1,12.713-.336.708.708,0,0,0,1.265.4,5.643,5.643,0,0,1,10.105,3.478,3.662,3.662,0,0,1-.045.486l-.027.2a.708.708,0,0,0,.632.791,5.65,5.65,0,0,1-.56,11.274H89.406a.708.708,0,0,0,0,1.417h8.677A7.066,7.066,0,0,0,99.5,54.508q0-.087,0-.174a7.091,7.091,0,0,0-7.083-7.083A6.987,6.987,0,0,0,87.907,48.9,7.772,7.772,0,0,0,80.375,43Z" transform="translate(16.833 -1.917)"/><path class="c" d="M76.159,50a4.263,4.263,0,0,0-4.127,3.316,3.32,3.32,0,0,0-1.717-.483,3.367,3.367,0,0,0-3.333,2.93,3.723,3.723,0,0,0-.827-.1,4.165,4.165,0,0,0-4.134,3.87.355.355,0,0,0,.327.38h.026a.354.354,0,0,0,.353-.329A3.387,3.387,0,0,1,67.2,56.555a.315.315,0,0,0,.095.014.376.376,0,0,0,.221-.076.369.369,0,0,0,.144-.295,2.642,2.642,0,0,1,4.4-1.986.357.357,0,0,0,.234.089.327.327,0,0,0,.132-.027.35.35,0,0,0,.22-.3,3.555,3.555,0,0,1,3.515-3.265,3.491,3.491,0,0,1,.966.152.342.342,0,0,0,.1.014.355.355,0,0,0,.095-.7A4.166,4.166,0,0,0,76.159,50Zm19.668,2.125a4.26,4.26,0,0,0-4.072,3.091.354.354,0,0,0,.244.438.4.4,0,0,0,.1.013.354.354,0,0,0,.34-.258,3.549,3.549,0,0,1,3.39-2.576,3.623,3.623,0,0,1,.485.041.293.293,0,0,0,.05,0,.354.354,0,0,0,.045-.706,4.34,4.34,0,0,0-.579-.048Z" transform="translate(18.925 1)"/><path class="d" d="M19.74,53.083H5.708a.708.708,0,0,1,0-1.417H19.74a.708.708,0,0,1,0,1.417Zm4.385,0H22.708a.708.708,0,0,1,0-1.417h1.417a.708.708,0,0,1,0,1.417ZM31.2,55.917H18.458a.708.708,0,0,1,0-1.417H31.2a.708.708,0,1,1,0,1.417Zm-15.571,0H14.208a.708.708,0,0,1,0-1.417h1.417a.708.708,0,0,1,0,1.417Zm-4.25,0H8.542a.708.708,0,0,1,0-1.417h2.833a.708.708,0,0,1,0,1.417Zm8.5,2.833H17.042a.708.708,0,1,1,0-1.417h2.833a.708.708,0,1,1,0,1.417ZM24.125,46H22.708a.708.708,0,1,0,0,1.417h1.417a.708.708,0,1,0,0-1.417Zm0,2.833H17.042a.708.708,0,0,0,0,1.417h7.083a.708.708,0,0,0,0-1.417Zm7.083,2.833h-4.25a.708.708,0,0,0,0,1.417h4.25a.708.708,0,0,0,0-1.417Z" transform="translate(-5 -0.667)"/><g transform="translate(80.917 9.917)"><path class="d" d="M76.875,25.25H62.708a.708.708,0,1,1,0-1.417H76.875a.708.708,0,1,1,0,1.417Zm5.667,0H79.708a.708.708,0,0,1,0-1.417h2.833a.708.708,0,1,1,0,1.417Zm7.083,2.833H75.458a.708.708,0,1,1,0-1.417H89.625a.708.708,0,1,1,0,1.417Zm-17,0H71.208a.708.708,0,1,1,0-1.417h1.417a.708.708,0,0,1,0,1.417Zm-4.427,0H65.542a.708.708,0,1,1,0-1.417H68.2a.708.708,0,1,1,0,1.417Zm12.927-5.667H74.042a.708.708,0,1,1,0-1.417h7.083a.708.708,0,1,1,0,1.417Zm-4.25,8.5H74.042a.708.708,0,1,1,0-1.417h2.833a.708.708,0,1,1,0,1.417Z" transform="translate(-62 -21)"/></g><g transform="translate(34 20)"><path class="b" d="M40.042,89.05A10.353,10.353,0,0,1,29.7,78.708V39.042A10.353,10.353,0,0,1,40.042,28.7H79.708A10.353,10.353,0,0,1,90.05,39.042V78.708A10.353,10.353,0,0,1,79.708,89.05Z" transform="translate(-28.708 -27.708)"/><path class="e" d="M40.042,89.05A10.353,10.353,0,0,1,29.7,78.708V39.042A10.353,10.353,0,0,1,40.042,28.7H79.708A10.353,10.353,0,0,1,90.05,39.042V78.708A10.353,10.353,0,0,1,79.708,89.05Z" transform="translate(-28.708 -27.708)"/><path class="c" d="M80,29.983a9.361,9.361,0,0,1,9.35,9.35V79A9.361,9.361,0,0,1,80,88.35H40.333A9.361,9.361,0,0,1,30.983,79V39.333a9.361,9.361,0,0,1,9.35-9.35H80M80,28H40.333A11.334,11.334,0,0,0,29,39.333V79A11.334,11.334,0,0,0,40.333,90.333H80A11.334,11.334,0,0,0,91.333,79V39.333A11.334,11.334,0,0,0,80,28Z" transform="translate(-29 -28)"/></g><g transform="translate(89.295 40.807)"><path class="c" d="M68.653,49.472a.709.709,0,0,1-.708-.708v-5.25a.708.708,0,0,1,1.417,0v5.25A.708.708,0,0,1,68.653,49.472Z" transform="translate(-67.945 -42.805)"/></g><g transform="translate(89.385 34.208)"><path class="c" d="M68.716,42.274a.709.709,0,0,1-.708-.708v-2.71a.708.708,0,1,1,1.417,0v2.71A.709.709,0,0,1,68.716,42.274Z" transform="translate(-68.008 -38.147)"/></g><g transform="translate(39.85 25.5)"><path class="c" d="M77.246,82.912H39.791a6.736,6.736,0,0,1-6.728-6.728V38.728A6.736,6.736,0,0,1,39.791,32H73.736a.708.708,0,0,1,0,1.417H39.791a5.317,5.317,0,0,0-5.311,5.311V76.183a5.317,5.317,0,0,0,5.311,5.311H77.246a5.317,5.317,0,0,0,5.311-5.311V56.953a.708.708,0,1,1,1.417,0v19.23A6.737,6.737,0,0,1,77.246,82.912Z" transform="translate(-33.063 -32)"/></g><g transform="translate(18.453 65.167)"><path class="b" d="M44,78.917h4.958a4.946,4.946,0,0,0,.63-9.853,4.932,4.932,0,0,0-8.55-4.08,5.665,5.665,0,0,0-11.206,1.183,5.6,5.6,0,0,0,.079.791,3.514,3.514,0,0,0-5.682,2.121,4.95,4.95,0,1,0-.772,9.839H34.083v.708H44Z" transform="translate(-17.792 -59.792)"/><path class="c" d="M41.271,70.028a.354.354,0,0,1-.354-.354,3.146,3.146,0,0,1,3.142-3.142,8.955,8.955,0,0,1,1.762.193.354.354,0,0,1-.184.683,7.137,7.137,0,0,0-1.577-.167,2.437,2.437,0,0,0-2.435,2.434A.354.354,0,0,1,41.271,70.028ZM31.708,75.7a.708.708,0,1,0,.708.708A.708.708,0,0,0,31.708,75.7Z" transform="translate(-12.583 -57.278)"/><path class="c" d="M49.167,79.833H44.208a.708.708,0,0,1,0-1.417h4.958a4.238,4.238,0,0,0,.541-8.442.709.709,0,0,1-.609-.812,4.455,4.455,0,0,0,.068-.663,4.255,4.255,0,0,0-4.25-4.25,4.19,4.19,0,0,0-3.144,1.417.708.708,0,0,1-1.218-.327,4.957,4.957,0,0,0-9.8,1.036,4.091,4.091,0,0,0,.058.592.777.777,0,0,1-.343.765.7.7,0,0,1-.788-.014,2.791,2.791,0,0,0-1.761-.635,2.824,2.824,0,0,0-2.781,2.329.705.705,0,0,1-.806.574,4.242,4.242,0,1,0-.663,8.431H34.292a.708.708,0,0,1,0,1.417H23.667a5.667,5.667,0,1,1,0-11.333c.084,0,.164,0,.246.008a4.24,4.24,0,0,1,4-2.842,4.118,4.118,0,0,1,1.432.255A6.373,6.373,0,0,1,41.592,63.93a5.648,5.648,0,0,1,8.992,4.57c0,.068,0,.135-.006.2a5.654,5.654,0,0,1-1.411,11.132Z" transform="translate(-18 -60)"/><path class="c" d="M35.125,73H33.708a.708.708,0,0,0,0,1.417h1.417a.708.708,0,0,0,0-1.417Z" transform="translate(-11.75 -54.583)"/></g><g transform="translate(46.632 40.049)"><path class="d" d="M52.617,66.47a2.088,2.088,0,0,1-1.405-.544L38.683,53.4a2.088,2.088,0,1,1,2.81-3.09l11.1,11.226L71.021,43.027a2.088,2.088,0,1,1,2.867,3.036L54.05,65.9A2.078,2.078,0,0,1,52.617,66.47Z" transform="translate(-37.646 -42.097)"/><path class="f" d="M52.721,66.93a2.43,2.43,0,0,1-1.642-.635L38.536,53.751a2.438,2.438,0,0,1-.15-3.434,2.443,2.443,0,0,1,3.445-.163l10.863,10.99L70.88,42.882a2.288,2.288,0,0,1,1.75-.673,2.44,2.44,0,0,1,1.608,4.213L54.4,66.255A2.431,2.431,0,0,1,52.721,66.93ZM40.2,50.22a1.736,1.736,0,0,0-1.742,1.82,1.71,1.71,0,0,0,.565,1.2L51.563,65.786a1.792,1.792,0,0,0,2.348-.034L73.745,45.919a1.738,1.738,0,0,0-1.136-3.007,1.657,1.657,0,0,0-1.241.474L52.693,62.141,41.344,50.66A1.7,1.7,0,0,0,40.2,50.22Z" transform="translate(-37.75 -42.202)"/></g><g class="g" transform="translate(-5553.833 -2228.833)"><rect width="3" height="3" rx="1.5" transform="translate(5615.833 2279.833)"/><rect class="h" width="3" height="3" rx="1.5" transform="translate(5618.833 2279.833)"/><rect class="i" width="3" height="3" rx="1.5" transform="translate(5618.833 2276.833)"/><rect class="j" width="3" height="3" rx="1.5" transform="translate(5615.833 2276.833)"/></g></svg>