<svg xmlns="http://www.w3.org/2000/svg" width="20.002" height="19.998" viewBox="0 0 20.002 19.998"><defs><style>.a{fill:#7a7580;}.b,.d{fill:none;}.b{stroke:#535261;stroke-width:1.3px;}.c{stroke:none;}</style></defs><path class="a" d="M19704,16919a9.9,9.9,0,0,1-5.789-1.855l-.109.105a.82.82,0,0,1-.586.246.84.84,0,0,1-.592-.246l-1.176-1.178a.832.832,0,0,1-.246-.592.82.82,0,0,1,.246-.586l.1-.1a9.95,9.95,0,0,1,0-11.578l-.1-.1a.828.828,0,0,1,0-1.178l1.178-1.178a.828.828,0,0,1,1.178,0l.1.1a9.95,9.95,0,0,1,11.572,0l.109-.1a.82.82,0,0,1,.586-.246.834.834,0,0,1,.592.246l1.178,1.178a.828.828,0,0,1,0,1.178l-.105.1a9.959,9.959,0,0,1,0,11.578l.105.1a.828.828,0,0,1,0,1.178l-1.178,1.178a.834.834,0,0,1-.592.246.82.82,0,0,1-.586-.246l-.109-.105A9.893,9.893,0,0,1,19704,16919Zm-5.623-6.732v0a6.525,6.525,0,0,0,2.355,2.354l-1.324,1.324a8.291,8.291,0,0,0,9.184.006l-1.33-1.328a6.562,6.562,0,0,0,2.357-2.359l1.326,1.328a8.3,8.3,0,0,0,0-9.184l-1.326,1.33a6.516,6.516,0,0,0-2.357-2.359l1.33-1.326a8.305,8.305,0,0,0-9.184,0l1.324,1.326a6.506,6.506,0,0,0-2.355,2.357l-1.328-1.328a8.3,8.3,0,0,0,0,9.184l1.328-1.324Z" transform="translate(-19693.998 -16899)"/><g class="b" transform="translate(4.502 4.5)"><circle class="c" cx="5.5" cy="5.5" r="5.5"/><circle class="d" cx="5.5" cy="5.5" r="4.85"/></g></svg>