<svg xmlns="http://www.w3.org/2000/svg" width="21.214" height="18.239" viewBox="0 0 21.214 18.239"><defs><style>.a{fill:#7a7580;}.b{fill:none;stroke:#7a7580;stroke-width:1.2px;}.c{fill:#141114;}.d{fill:#535261;}</style></defs><g transform="translate(0.604)"><path class="a" d="M10.886,17.636s.315,5.534,2.372,5.534c2.372,0,3.181-1.729,4.447-1.729s2.39,1.729,4.447,1.729c1.9,0,2.52-5.534,2.52-5.534a54.392,54.392,0,0,1-7.115.494A43.733,43.733,0,0,1,10.886,17.636Zm1.927,1.729c1.266.16,3.162.624,3.162.939s-.642.828-1.433.988C12.961,21.607,12.813,19.681,12.813,19.366Zm9.338,0c.161.315-.2,2.242-1.779,1.927-.791-.161-1.383-.673-1.383-.988S20.885,19.526,22.151,19.366Z" transform="translate(-7.764 -4.931)"/><path class="b" d="M-2795.6-9919.638s.65-6.167,3.361-6.353c.529.124.405-.354,2.349,1.447,0,0,.279.619,2.1-1.3.818-.27,1.418-.526,2.411,1.636a20.365,20.365,0,0,1,1.385,4.572s3.642.351,4.263,2.037-10.066,1.677-10.066,1.677-12.372-.363-9.466-2.308S-2795.6-9919.638-2795.6-9919.638Z" transform="translate(2799.705 9926.851)"/><path class="c" d="M-2704.736-10130.851s2.352.983,2.877,2.27-2.489,5.283-2.489,5.283-.185-3.182-2.286-4.283S-2704.736-10130.851-2704.736-10130.851Z" transform="translate(2709.705 10130.851)"/><path class="d" d="M-2702.321-10126.994s-.579-2.309-3.873-3.437c-.3-.107-.992.122-1.771,0,.03,0,4.478,2.493,4.18,5.924A3.737,3.737,0,0,0-2702.321-10126.994Z" transform="translate(2709.705 10130.851)"/><path class="d" d="M-2706.557-10127.47a20.442,20.442,0,0,0-.617,2.463c.069.018-1.44-2.678-2.253-2.914l1.234-.185Z" transform="translate(2709.705 10130.851)"/></g></svg>